<svg xmlns="http://www.w3.org/2000/svg" viewBox="0 0 500 500"><g id="freepik--Floor--inject-27"><path d="M468.92,466.5c0,.15-98,.26-218.91.26s-218.93-.11-218.93-.26,98-.26,218.93-.26S468.92,466.36,468.92,466.5Z" style="fill:#263238"></path></g><g id="freepik--Character--inject-27"><path d="M183.62,225.19s-36,.06-53.22,55.25c-21,67.4-34.55,89.21-32.83,114.48l63.26,8.76,22.79-93.84Z" style="fill:#F29CDE"></path><path d="M325.71,466.5l-6-135.26c0-.09,0,.09,0,0L303.22,227a2.41,2.41,0,0,0-1.76-2c-5.83-1.58-26.84-7-42.91-7.6-18.85-.7-46.1,3-46.1,3S188,223,174.54,227.81a2.41,2.41,0,0,0-1.58,2.61l6.62,62.07,18.7,94.17c2.43,0-38.9,65.41-44.32,79.84Z" style="fill:#F29CDE"></path><g style="opacity:0.30000000000000004"><path d="M185.17,417.15c-.8,7.94,1.7,16,6,22.71s10.4,12.14,17,16.62c7.65,5.19,15.86,7.17,25,8.41a65.89,65.89,0,0,0,39-6.49c11.89-6.17,22.64-14.3,34.11-21.21,5.05-3,10.6-6.26,12.74-11.75,1-2.66,1-6.09-1.23-7.92s-5.14-1.38-7.8-.86a138.64,138.64,0,0,0-37.33,13.1c-6.44,3.36-12.88,7.32-20.12,8S238,435.51,231.48,432a105.7,105.7,0,0,1-19.89-13.88c-3.35-3-6.7-6.24-11-7.41s-9.86.78-10.79,5.14"></path></g><path d="M328.39,243.38c.38-1.1,6.33,5.09,8.64,10.32,6.24,14.12,31.71,67.93,32.1,78.19.45,11.61-3.34,11.08-3.34,11.08s5.64,7.21,3.38,9.44-43.54,8-43.54,8L307.1,296.53Z" style="fill:#F29CDE"></path><path d="M366.31,343.9a7.55,7.55,0,0,1-1.25.54c-.82.32-2,.73-3.54,1.18a61.67,61.67,0,0,1-24.37,2.06c-1.56-.19-2.82-.39-3.68-.57a6.31,6.31,0,0,1-1.32-.33,7.19,7.19,0,0,1,1.36.13c.86.12,2.12.26,3.68.4a69.66,69.66,0,0,0,24.23-2.05c1.52-.4,2.73-.75,3.57-1A6.19,6.19,0,0,1,366.31,343.9Z" style="fill:#263238"></path><path d="M236.69,338.67s-.08-.06-.2-.2l-.55-.62-2.08-2.42c-.9-1.05-2-2.35-3.19-3.9s-2.63-3.29-4.07-5.3l-2.29-3.14c-.79-1.09-1.56-2.27-2.39-3.47-1.68-2.38-3.31-5-5.07-7.79-3.41-5.59-6.93-11.88-10.24-18.67s-6-13.49-8.26-19.63c-1.08-3.09-2.13-6-3-8.81-.43-1.4-.87-2.73-1.23-4s-.71-2.55-1-3.75c-.69-2.38-1.16-4.57-1.63-6.48s-.81-3.57-1.07-4.93-.46-2.37-.61-3.12c-.06-.34-.11-.61-.14-.82a1.44,1.44,0,0,1,0-.28,1.1,1.1,0,0,1,.09.27c.05.21.11.48.19.81.17.74.41,1.78.71,3.1s.65,3,1.15,4.9,1,4.09,1.7,6.45c.34,1.19.69,2.44,1.06,3.73s.83,2.63,1.26,4c.84,2.78,1.91,5.69,3,8.77,2.28,6.13,5,12.77,8.28,19.57s6.8,13.06,10.18,18.65c1.74,2.76,3.36,5.41,5,7.8.81,1.2,1.57,2.38,2.36,3.48L226.9,326c1.42,2,2.82,3.77,4,5.34s2.24,2.88,3.12,3.95l2,2.48c.21.27.37.49.51.66Z" style="fill:#263238"></path><path d="M223.32,287.75a3.26,3.26,0,0,1-.39-.61c-.27-.45-.61-1-1-1.78-.89-1.55-2.15-3.81-3.67-6.63-3-5.63-7.1-13.49-11-22.44s-6.92-17.29-9-23.34c-1-3-1.84-5.49-2.37-7.2l-.6-2a3,3,0,0,1-.18-.7,4.34,4.34,0,0,1,.28.67c.17.49.4,1.13.69,1.94.62,1.74,1.48,4.16,2.53,7.14,2.15,6,5.21,14.31,9.12,23.25s7.91,16.81,10.86,22.48l3.53,6.7,1,1.83A4.41,4.41,0,0,1,223.32,287.75Z" style="fill:#263238"></path><path d="M161.58,370a2.64,2.64,0,0,1-.59-.07l-1.68-.31c-.73-.14-1.63-.31-2.67-.46s-2.22-.38-3.54-.53c-2.63-.37-5.78-.65-9.28-.83s-7.36-.14-11.4.11-7.87.77-11.32,1.35-6.54,1.3-9.1,2c-1.29.32-2.43.68-3.45,1s-1.88.56-2.58.8l-1.63.52a2.4,2.4,0,0,1-.58.14,2.8,2.8,0,0,1,.54-.24l1.6-.61c.7-.27,1.55-.58,2.56-.89s2.15-.72,3.44-1.05a93.35,93.35,0,0,1,9.11-2.12,104.43,104.43,0,0,1,11.38-1.4,107.4,107.4,0,0,1,11.45-.07c3.52.2,6.68.53,9.31.95,1.32.17,2.5.41,3.54.6s1.93.38,2.66.55l1.66.41A2,2,0,0,1,161.58,370Z" style="fill:#263238"></path><path d="M157.21,366.3a4.64,4.64,0,0,1-1.13-.29c-.72-.23-1.76-.55-3.05-.92a75.77,75.77,0,0,0-20.67-2.95c-1.34,0-2.43,0-3.18,0a6,6,0,0,1-1.17,0,4.38,4.38,0,0,1,1.16-.17c.75-.09,1.84-.15,3.18-.19a62.32,62.32,0,0,1,10.52.61,63.2,63.2,0,0,1,10.27,2.35c1.28.42,2.31.79,3,1.08A5.73,5.73,0,0,1,157.21,366.3Z" style="fill:#263238"></path><path d="M186.92,330a9.12,9.12,0,0,1-.45-1.55c-.25-1-.59-2.47-1-4.29-.79-3.62-1.76-8.65-2.8-14.21s-2-10.52-2.65-14.25c-.33-1.75-.61-3.2-.81-4.31a8.4,8.4,0,0,1-.25-1.59,9.92,9.92,0,0,1,.44,1.55c.25,1,.59,2.47,1,4.28.78,3.63,1.76,8.66,2.8,14.22s1.95,10.51,2.65,14.24l.81,4.32A10.79,10.79,0,0,1,186.92,330Z" style="fill:#263238"></path><g style="opacity:0.30000000000000004"><path d="M190.35,247.29a287.41,287.41,0,0,0,20.24,80.32c1.29,3.09,2.76,6.31,5.48,8.26s7.08,2.06,9-.67c2.36-3.32.6-8.08-1.77-11.39-15.24-21.29-25.84-43.93-31.37-69.52"></path></g><g style="opacity:0.30000000000000004"><path d="M104.22,373.82A14.34,14.34,0,0,1,116,367.43c-.56-2.28,1-4.65,3.1-5.74a14.92,14.92,0,0,1,6.86-1.21c11.86-.09,24.43,1.55,33.69,8.95A105.07,105.07,0,0,0,103,374"></path></g><path d="M195.06,223.08s50.37,116.68,62.21,119.74c20.66,5.35,63-61.43,75.49-82.07a12.07,12.07,0,0,0-.12-12.78,64.54,64.54,0,0,0-44.51-29.14c-27.75-4.61-59.77-1.88-78,1.53C200.9,222.08,195.06,223.08,195.06,223.08Z" style="fill:#ffbe9d"></path><path d="M305.27,282.33A94.19,94.19,0,0,1,300.2,274a92.29,92.29,0,0,1-4.62-8.58,88.26,88.26,0,0,1,5.07,8.32A88.71,88.71,0,0,1,305.27,282.33Z" style="fill:#eb996e"></path><path d="M263.92,311.49a5.59,5.59,0,0,1-1.94-1.13,12.64,12.64,0,0,1-4.77-9.49,5.63,5.63,0,0,1,.25-2.23c.09,0,0,.86.12,2.21a14.14,14.14,0,0,0,1.44,5.06,14.29,14.29,0,0,0,3.2,4.17C263.23,311,264,311.41,263.92,311.49Z" style="fill:#eb996e"></path><path d="M216.08,76.62c11.77-12,30.34-19.06,45.73-12.33,10.35,4.53,17.37,14.24,26.45,20.95,6.61,4.89,14.78,8.67,18.25,16.13,3.05,6.57,1.58,14.23.84,21.44s-4.8,17.33-3.55,24.47c1.47,8.4,12,14.64,14.45,17.54,9.29,11,12.18,18.57,8.75,28.89-2.42,7.27-4.1,23.6-12.32,35.66l-15.79-7.75c-9.68-3.33-22.07-4.64-35.41-5.23l-1.12-2.12-5,4.32Z" style="fill:#263238"></path><path d="M210.85,89.7l-.07,8.82-2.49,132.21c-.22,15.32,14.44,28.37,30.85,28.48h0c16.58.11,23.34-12.34,23.81-27.82.5-16.25,1.32-33.34,1.32-33.34s21-2.9,26.12-30.08c2.53-13.52,2.46-35.81,1.81-54a28.84,28.84,0,0,0-31.06-27.76Z" style="fill:#ffbe9d"></path><path d="M283.67,131.49a3.51,3.51,0,0,1-3.48,3.44,3.34,3.34,0,0,1-3.52-3.26,3.5,3.5,0,0,1,3.47-3.44A3.36,3.36,0,0,1,283.67,131.49Z" style="fill:#263238"></path><path d="M287.05,125.38c-.44.44-3-1.59-6.81-1.69s-6.58,1.72-7,1.24c-.19-.21.27-1,1.5-1.86a9.56,9.56,0,0,1,5.6-1.56,9.28,9.28,0,0,1,5.41,1.91C286.9,124.34,287.27,125.18,287.05,125.38Z" style="fill:#263238"></path><path d="M246.6,131.49a3.5,3.5,0,0,1-3.47,3.44,3.34,3.34,0,0,1-3.52-3.26,3.5,3.5,0,0,1,3.47-3.44A3.35,3.35,0,0,1,246.6,131.49Z" style="fill:#263238"></path><path d="M250,125.06c-.44.44-3.05-1.59-6.81-1.69s-6.58,1.72-7,1.25c-.2-.21.27-1,1.5-1.87a9.64,9.64,0,0,1,5.6-1.56,9.28,9.28,0,0,1,5.41,1.91C249.84,124,250.21,124.86,250,125.06Z" style="fill:#263238"></path><path d="M262.9,153.38c0-.21,2.34-.55,6.15-.93,1-.07,1.88-.24,2.06-.89a4.9,4.9,0,0,0-.56-2.87c-.84-2.36-1.72-4.82-2.65-7.41-3.66-10.54-6.28-19.2-5.86-19.34s3.74,8.28,7.41,18.82l2.52,7.45c.33,1.1.93,2.36.39,3.79a2.42,2.42,0,0,1-1.62,1.37,6.77,6.77,0,0,1-1.64.18C265.28,153.65,262.91,153.6,262.9,153.38Z" style="fill:#263238"></path><path d="M264.27,198.05A69.49,69.49,0,0,1,228,187.29s8.36,19,35.76,17.2Z" style="fill:#eb996e"></path><path d="M261.05,162.42a6.77,6.77,0,0,0-6-2.69,6.23,6.23,0,0,0-4.35,2.18,3.92,3.92,0,0,0-.42,4.48c1,1.46,3.09,1.85,4.91,1.39a14.2,14.2,0,0,0,4.89-2.74,4.27,4.27,0,0,0,1.11-1.09,1.27,1.27,0,0,0,0-1.4" style="fill:#eb996e"></path><path d="M251.74,155.69c.61,0,.51,4.07,3.93,7.07s7.78,2.67,7.8,3.24c0,.26-1,.77-2.83.77a10.17,10.17,0,0,1-6.52-2.48,8.9,8.9,0,0,1-3-5.92C251,156.65,251.46,155.65,251.74,155.69Z" style="fill:#263238"></path><path d="M251.19,114.1c-.4,1-4.15.42-8.58.83s-8.05,1.52-8.61.59c-.25-.45.4-1.4,1.87-2.35A15,15,0,0,1,249,112.09C250.57,112.79,251.36,113.62,251.19,114.1Z" style="fill:#263238"></path><path d="M287.19,117.77c-.83.83-4-.15-7.76-.29s-7,.38-7.75-.54c-.31-.44.22-1.28,1.65-2.06a12.47,12.47,0,0,1,6.35-1.22,12.25,12.25,0,0,1,6.15,1.89C287.15,116.46,287.56,117.36,287.19,117.77Z" style="fill:#263238"></path><path d="M230.35,73.57c-11.28-4.92-25.91.05-31.86,10.83-4.63,8.39-4.21,19-9.38,27.05-5.48,8.56-16.42,13-20.44,22.3a26.47,26.47,0,0,0-1.88,9.57,57.21,57.21,0,0,0,4.09,23.6c2.28,5.68,3.91,13.34.57,20.37-6.33,13.34-7,24.39-3.92,29.35S174,227.12,174,227.12l49.09-9.2h0c1.86-.27,2.72-8.64,1.73-15.3a13.75,13.75,0,0,1,.77-6.26c1.07-2.53,2.76-4.76,4.06-7.19,5.25-9.82,3.1-22.9-4.56-30.87a20.85,20.85,0,0,1-5.57-10c-.91-4.29-1-9.63,2.29-13.73,6.54-8.12,8.53-61,8.53-61l-3.61,34.77" style="fill:#263238"></path><path d="M227.36,80.07c1.08,6.42,6.15,11.6,12,14.51s12.39,3.92,18.84,4.86,13,1.89,18.87,4.72a32.35,32.35,0,0,1,17.57,23.55c7.12-8,6.1-20.91.1-29.75S278.87,83.67,269,79.67c-6.43-2.6-13.13-4.75-20-5.18s-14.13,1-19.8,5" style="fill:#263238"></path><path d="M182.8,221.48a6.58,6.58,0,0,1-1.35-.92,10,10,0,0,1-2.65-3.84,14,14,0,0,1-.74-7.34,30.4,30.4,0,0,1,3.41-9.19c1.67-3.22,3.79-6.63,5-10.69a17.93,17.93,0,0,0,.76-6.45,38.33,38.33,0,0,0-1.17-6.86c-.56-2.33-1.2-4.72-1.55-7.23a22.62,22.62,0,0,1,.21-7.73c1-5.21,3.72-10.08,6.87-14.62s6.69-8.7,9.49-13.08a42.09,42.09,0,0,0,3.6-6.73,34.45,34.45,0,0,0,2-7,94.43,94.43,0,0,0,1.09-13.54,77.77,77.77,0,0,1,1-11.85,35.1,35.1,0,0,1,3.11-9.3,21.66,21.66,0,0,1,4.38-6,16.78,16.78,0,0,1,3.81-2.72l1.11-.49.39-.15a18.24,18.24,0,0,0-5.17,3.5,21.93,21.93,0,0,0-4.26,6,34.94,34.94,0,0,0-3,9.24,78.3,78.3,0,0,0-1,11.79,92.82,92.82,0,0,1-1.05,13.61,34,34,0,0,1-2,7.13,43.4,43.4,0,0,1-3.63,6.81c-2.82,4.43-6.33,8.58-9.49,13.1s-5.79,9.33-6.8,14.43a21.88,21.88,0,0,0-.21,7.56c.34,2.47,1,4.85,1.52,7.18a39.71,39.71,0,0,1,1.16,7,18.55,18.55,0,0,1-.81,6.61c-1.28,4.13-3.44,7.53-5.11,10.73a29.89,29.89,0,0,0-3.45,9.07,13.79,13.79,0,0,0,.64,7.21,10.29,10.29,0,0,0,2.53,3.84C182.32,221.19,182.82,221.45,182.8,221.48Z" style="fill:#455a64"></path><path d="M298.89,221.62l.32-.39,1-1.1a38.76,38.76,0,0,0,3.3-4.56,38.26,38.26,0,0,0,5.46-19.69,36.07,36.07,0,0,0-.66-6.81,35.52,35.52,0,0,0-.86-3.53c-.17-.6-.41-1.18-.61-1.77s-.43-1.19-.7-1.78c-2-4.73-5.16-9.28-7.81-14.47a34.71,34.71,0,0,1-3.12-8.38,38.68,38.68,0,0,1-.8-9.29c.13-6.36,1.44-12.8,2.17-19.43a57.21,57.21,0,0,0,.31-9.85,31.47,31.47,0,0,0-2-9.3,21.63,21.63,0,0,0-5-7.63A25.8,25.8,0,0,0,282.43,99,39.42,39.42,0,0,1,275,94.88a43.45,43.45,0,0,1-5.9-5.44c-1.77-1.88-3.43-3.73-5.16-5.37a34.66,34.66,0,0,0-5.37-4.24,35.25,35.25,0,0,0-5.49-2.92,37.67,37.67,0,0,0-14.05-3c-1.22,0-2.3,0-3.25,0s-1.73.16-2.37.23l-1.45.22-.5.06a4.59,4.59,0,0,1,.49-.11l1.45-.27c.64-.09,1.43-.19,2.37-.28s2-.14,3.27-.11a38,38,0,0,1,8.87,1.17,36,36,0,0,1,5.3,1.79,34.13,34.13,0,0,1,5.56,2.91,35.27,35.27,0,0,1,5.45,4.25c1.75,1.65,3.42,3.51,5.2,5.37a43.12,43.12,0,0,0,5.85,5.38,40.46,40.46,0,0,0,7.39,4,26.05,26.05,0,0,1,7.58,4.75,22.09,22.09,0,0,1,5.1,7.81,31.48,31.48,0,0,1,2.06,9.44,56.3,56.3,0,0,1-.31,9.95c-.72,6.66-2,13.09-2.17,19.38a38.07,38.07,0,0,0,.78,9.17,34,34,0,0,0,3.06,8.28c2.61,5.14,5.77,9.72,7.78,14.51q.39.9.69,1.8c.21.61.45,1.19.62,1.8a33.73,33.73,0,0,1,.85,3.58,35.9,35.9,0,0,1,.64,6.88,38,38,0,0,1-5.66,19.8,34.91,34.91,0,0,1-3.39,4.52l-1,1.07C299,221.51,298.89,221.62,298.89,221.62Z" style="fill:#455a64"></path><path d="M224.7,204.71c-.72,5.33.34,10.74,0,16.1s-2.65,11.21-7.62,13.24c-4.53,1.85-9.79-.09-13.67-3.06s-6.94-6.92-10.81-9.91a81,81,0,0,1,31.47-12.77" style="fill:#263238"></path><path d="M223.32,79.47l-.18.15-.54.43A8.86,8.86,0,0,0,220.75,82a8.58,8.58,0,0,0-.94,1.71c-.13.33-.3.67-.42,1s-.2.77-.3,1.18a22.12,22.12,0,0,0-.33,5.8c.27,4.37,1.48,9.56,2.75,15.5a21.5,21.5,0,0,1,.3,9.65,18.22,18.22,0,0,1-5.14,9.33l0,0a19.28,19.28,0,0,0-4.17,8,28.93,28.93,0,0,0-.76,9.61c.52,6.66,3,13.28,5,20.19,1.73,5.94,2.94,12.07,2.14,18a36.73,36.73,0,0,1-2.36,8.32c-1,2.63-2.11,5.15-2.9,7.71a23.74,23.74,0,0,0-1.22,7.64,49.21,49.21,0,0,0,.83,7.32c.39,2.36.77,4.65.91,6.88a15.82,15.82,0,0,1-.74,6.37,8.24,8.24,0,0,1-3.7,4.46,6,6,0,0,1-2.6.77,6.5,6.5,0,0,1-2.51-.42,10.4,10.4,0,0,1-3.62-2.72c-.95-1-1.73-2-2.48-2.86a14.54,14.54,0,0,0-3.85-3.46l-.7-.36-.54-.18-.43-.17.45.11.55.17.72.34a14.13,14.13,0,0,1,4,3.41c.76.85,1.55,1.84,2.5,2.83a10.26,10.26,0,0,0,3.54,2.62,6.15,6.15,0,0,0,2.39.38,5.81,5.81,0,0,0,2.46-.75,8,8,0,0,0,3.52-4.3,15.52,15.52,0,0,0,.68-6.22,67.22,67.22,0,0,0-.94-6.83,49.39,49.39,0,0,1-.85-7.38,24.08,24.08,0,0,1,1.21-7.8c1.57-5.16,4.43-10.17,5.21-15.95S218,170,216.25,164.13c-2-6.88-4.47-13.55-5-20.3a29.47,29.47,0,0,1,.8-9.78,19.78,19.78,0,0,1,4.29-8.18h0l0,0a17.75,17.75,0,0,0,5-9.06,21.24,21.24,0,0,0-.26-9.48c-1.23-5.94-2.41-11.15-2.65-15.56a21.92,21.92,0,0,1,.4-5.86c.11-.42.22-.82.32-1.21s.3-.72.44-1a9,9,0,0,1,1-1.73,8.77,8.77,0,0,1,1.92-1.9l.57-.4C223.25,79.5,223.31,79.46,223.32,79.47Z" style="fill:#455a64"></path><path d="M240.27,277.45s15.26-14.65,13.5-15.6-9.7,3.44-9.7,3.44,1.53-17-.13-17.51-2.81,2.55-2.81,2.55-.35-2.57-2-2.41c-1.82.18-2.48,3.54-2.48,3.54s-.21-2.88-2.5-2.15c-1.89.6-2.6,4.35-2.6,4.35s-.89-3.29-2.69-1.35-2.26,6.59-2.26,6.59L226,275s-5.11,25,.8,46.76C229.52,332,260,337.26,260,337.26l4.51-25.56L247,305.19Z" style="fill:#ffbe9d"></path><path d="M226.76,321.78a.8.8,0,0,1-.07-.21c0-.16-.1-.36-.17-.62-.14-.58-.35-1.39-.62-2.44a87.91,87.91,0,0,1-1.57-9.44A123.82,123.82,0,0,1,225.75,275v0c.16-4.12.33-8.47.5-13,.06-1.14.06-2.27.16-3.45a21.33,21.33,0,0,1,.76-3.47,7.35,7.35,0,0,1,1.8-3.19,1.53,1.53,0,0,1,.95-.43,1.3,1.3,0,0,1,1,.42,4.31,4.31,0,0,1,.91,1.71l-.49,0a10.77,10.77,0,0,1,.67-2.16,5.18,5.18,0,0,1,1.33-2,2.21,2.21,0,0,1,2.47-.29,3,3,0,0,1,1.13,2.25l-.51,0a8.26,8.26,0,0,1,.64-1.89,3.64,3.64,0,0,1,1.35-1.63,1.89,1.89,0,0,1,1.15-.21,1.73,1.73,0,0,1,1,.6,4.16,4.16,0,0,1,.82,2l-.5-.06a6.71,6.71,0,0,1,1.17-2,2.44,2.44,0,0,1,1-.72,1.47,1.47,0,0,1,.69,0,.79.79,0,0,1,.37.12c.16.09.19.2.27.31a6.47,6.47,0,0,1,.46,2.26c.06.75.08,1.49.09,2.22,0,1.47,0,2.93-.08,4.38-.13,2.89-.32,5.74-.56,8.53l-.38-.24a39.92,39.92,0,0,1,7.69-3.37,7.34,7.34,0,0,1,1-.2,2.39,2.39,0,0,1,1.14.11.48.48,0,0,1,.3.31.68.68,0,0,1,0,.37,2,2,0,0,1-.19.54,7.33,7.33,0,0,1-.53.9,37.19,37.19,0,0,1-2.51,3.12c-3.51,3.93-7.08,7.46-10.49,10.76l.07-.21c2.63,11,4.89,20.37,6.67,27.75l-.1-.11L260,309.91l3.42,1.32.87.34.29.13-.3-.09-.89-.31-3.44-1.23-13-4.74-.08,0,0-.08-6.81-27.72,0-.12.09-.09c3.39-3.3,7-6.84,10.43-10.76a33.63,33.63,0,0,0,2.47-3.08,6.44,6.44,0,0,0,.49-.83c.15-.28.21-.63.1-.56a3.44,3.44,0,0,0-1.83.12,39.79,39.79,0,0,0-7.57,3.34l-.42.22,0-.47c.24-2.79.43-5.63.55-8.51,0-1.44.1-2.9.08-4.35,0-.73,0-1.46-.08-2.19a6.61,6.61,0,0,0-.4-2.05c-.06-.2-.43-.21-.72-.13a1.86,1.86,0,0,0-.81.57,6.18,6.18,0,0,0-1.07,1.81l-.35.86-.15-.91a3.74,3.74,0,0,0-.71-1.75,1.16,1.16,0,0,0-1.51-.27,3.15,3.15,0,0,0-1.14,1.39,8.36,8.36,0,0,0-.59,1.77l-.34,1.53-.17-1.56a2.53,2.53,0,0,0-.9-1.84,1.69,1.69,0,0,0-1.86.24,4.73,4.73,0,0,0-1.19,1.77,11.17,11.17,0,0,0-.65,2.06l-.2,1-.29-1a3.8,3.8,0,0,0-.78-1.49.83.83,0,0,0-1.26,0,6.93,6.93,0,0,0-1.65,3,19.7,19.7,0,0,0-.74,3.37c-.1,1.13-.11,2.3-.17,3.42q-.27,6.81-.53,13v0a126.23,126.23,0,0,0-1.59,34,94.8,94.8,0,0,0,1.45,9.43c.24,1,.42,1.87.55,2.45.06.27.1.47.13.63S226.76,321.78,226.76,321.78Z" style="fill:#eb996e"></path><path d="M242.26,314.62a3.69,3.69,0,0,1-.08-1.66,10.65,10.65,0,0,1,3.57-7,3.75,3.75,0,0,1,1.39-.91,14.17,14.17,0,0,0-4.88,9.56Z" style="fill:#eb996e"></path><path d="M240.44,260.24a20.5,20.5,0,0,1-.12-5.61,21.16,21.16,0,0,1,.89-5.55,54.9,54.9,0,0,1-.37,5.58C240.62,257.74,240.59,260.24,240.44,260.24Z" style="fill:#eb996e"></path><path d="M235,261.45a29.26,29.26,0,0,1,.54-5.46,29.54,29.54,0,0,1,1.05-5.39,29.33,29.33,0,0,1-.54,5.46A29.54,29.54,0,0,1,235,261.45Z" style="fill:#eb996e"></path><path d="M230.74,260.55a17.65,17.65,0,0,1,.09-4.22,16.77,16.77,0,0,1,.61-4.19,34.22,34.22,0,0,1-.7,8.41Z" style="fill:#eb996e"></path><path d="M108,318.42a2.18,2.18,0,0,1,3.86-.24c2.88,4.8,8.89,14.38,11.46,15.15,3.43,1,4.33,0,6.52,0,1.85,0,41.9-8.24,48.42-6.18s41.25,34.33,41.25,34.33l-31.92,55.79s-10.36-13.2-15.85-27.28-6.85-32.33-6.85-32.33-52.22-2.35-54.62-7.16-.35-11-2.06-15.11C106.88,332.11,106,323.41,108,318.42Z" style="fill:#ffbe9d"></path><path d="M288.83,324.41c-1.95-4.94-3.42-10.17-3.26-15.47s2.1-10.72,6.09-14.23c2.8-2.46,6.43-3.86,9.14-6.44,3.25-3.09,4.82-7.54,7.58-11.07,4.78-6.13,12.92-9,20.69-8.77s15.21,3.34,21.87,7.35V316l-31,23.42Z" style="fill:#ffbe9d"></path><path d="M310.26,311.29a5.89,5.89,0,0,0,.26,1.13,3.94,3.94,0,0,0,2.17,2.08,4.86,4.86,0,0,0,4.38-.48,12.12,12.12,0,0,0,4-4,9.78,9.78,0,0,0,1.62-5.37,6.92,6.92,0,0,0-1.61-4.23,6,6,0,0,0-2.52-1.79c-.71-.25-1.13-.27-1.13-.32s.11,0,.31,0a4.17,4.17,0,0,1,.88.14,5.87,5.87,0,0,1,2.74,1.75,7.09,7.09,0,0,1,1.81,4.46,10,10,0,0,1-1.66,5.65,12.07,12.07,0,0,1-4.18,4.17,5.22,5.22,0,0,1-4.75.4,4.07,4.07,0,0,1-2.23-2.35,3.1,3.1,0,0,1-.12-.89C310.22,311.4,310.24,311.29,310.26,311.29Z" style="fill:#eb996e"></path><path d="M313.39,308.76a3.43,3.43,0,0,0,1.25.55,2.45,2.45,0,0,0,1.41-.24,2.6,2.6,0,0,0,1.13-1.3,3.59,3.59,0,0,0-.16-3.18,4,4,0,0,0-1-1c0-.06.68,0,1.27.8a3.69,3.69,0,0,1,.33,3.58,2.93,2.93,0,0,1-1.4,1.53,2.59,2.59,0,0,1-1.68.17C313.59,309.42,313.33,308.76,313.39,308.76Z" style="fill:#eb996e"></path><path d="M306.56,279.43a1.84,1.84,0,0,1-.06.54,10,10,0,0,1-.45,1.5,17.33,17.33,0,0,1-3,4.87,25.76,25.76,0,0,1-2.82,2.8c-1.09.93-2.37,1.77-3.68,2.68-2.6,1.81-5.56,3.79-7.75,6.7a16.91,16.91,0,0,0-3.12,9.58,30.37,30.37,0,0,0,1,8.33c.58,2.34,1.18,4.2,1.58,5.48.19.6.34,1.09.46,1.49a2.73,2.73,0,0,1,.13.53,2.08,2.08,0,0,1-.23-.5c-.15-.38-.33-.86-.55-1.45-.46-1.27-1.12-3.12-1.75-5.46a29.4,29.4,0,0,1-1.1-8.44,17.15,17.15,0,0,1,3.18-9.87c2.27-3,5.28-5,7.9-6.79,1.32-.9,2.6-1.71,3.67-2.61a25.4,25.4,0,0,0,2.82-2.71,18.09,18.09,0,0,0,3.13-4.71C306.4,280.16,306.51,279.42,306.56,279.43Z" style="fill:#eb996e"></path><path d="M303.44,289.1a3.66,3.66,0,0,1-3,.29,3.75,3.75,0,0,1-2.54-1.64,19.33,19.33,0,0,0,2.67,1.14A18.13,18.13,0,0,0,303.44,289.1Z" style="fill:#263238"></path><path d="M324.44,259.72c4.54-.37,10.92-1.54,18.2,1.32s13.26,12.74,13.26,12.74,9.69,5.32,12.61,9.4c4.7,6.55,6.33,15,5.26,23a46.43,46.43,0,0,1-9.65,21.87c-6.58,8.51-16.18,15.4-26.93,15.87-1.6.07-3.4-.07-4.5-1.24s-.73-3.62.87-3.8a46.33,46.33,0,0,1-9.19,4.57,6,6,0,0,1-3.61.48,4.36,4.36,0,0,1-2.84-3.71,12.93,12.93,0,0,1,.6-4.88c-2.51,1.39-5.86,1.53-8.11-.24-2.52-2-4.94-7.42-3.85-10.42A15.33,15.33,0,0,1,313,317c3.54-1.92,5.64-2.48,7.42-5.13,3.27-4.87,5.6-10.21-2.21-13.54-5.79-3.2-3.24-13.27-2.45-19.83-1.14,1.41-.68,3.45-.79,5.26s-1.81,3.92-3.37,3a3.17,3.17,0,0,1-1.21-2.06,37.55,37.55,0,0,1-1.14-6.66c.31,1.93-1.88,3.61-3.79,3.22a4.75,4.75,0,0,1-3.43-4.25,9.8,9.8,0,0,1,1.42-5.57,22.79,22.79,0,0,1,21.66-11.65" style="fill:#263238"></path><path d="M320.83,337.26a3.43,3.43,0,0,1,.53-.51l1.56-1.41a49.14,49.14,0,0,0,5.38-5.5,21.41,21.41,0,0,0,4.81-10.13,13.81,13.81,0,0,0-.51-6.56,22.58,22.58,0,0,0-3.54-6.22c-1.48-2-3-3.87-4.33-5.85a30.36,30.36,0,0,1-3.14-6.05,19.8,19.8,0,0,1-1.32-6,15.08,15.08,0,0,1,.69-5.33,12.79,12.79,0,0,1,4.31-6.37,8.18,8.18,0,0,1,2.51-1.34,17.2,17.2,0,0,0-2.38,1.5,13,13,0,0,0-4.09,6.32,14.91,14.91,0,0,0-.6,5.2,19.56,19.56,0,0,0,1.32,5.88,30.25,30.25,0,0,0,3.13,5.93c1.27,2,2.82,3.82,4.32,5.83a23.2,23.2,0,0,1,3.61,6.36,14.22,14.22,0,0,1,.49,6.81,21.52,21.52,0,0,1-5,10.29,44.72,44.72,0,0,1-5.53,5.42c-.7.59-1.26,1-1.63,1.33A4.93,4.93,0,0,1,320.83,337.26Z" style="fill:#455a64"></path><path d="M335.38,336.61a3.54,3.54,0,0,1,.49-.47c.32-.3.84-.7,1.44-1.28a50.41,50.41,0,0,0,4.87-5.14,48.85,48.85,0,0,0,7-50.55c-.31-.78-.62-1.35-.79-1.76a2.81,2.81,0,0,1-.25-.63,3.82,3.82,0,0,1,.34.58c.2.4.54,1,.89,1.72a45.52,45.52,0,0,1,2.53,6.66,47.26,47.26,0,0,1-9.4,44.22,43.86,43.86,0,0,1-5,5.05c-.62.56-1.16.93-1.5,1.21A3.37,3.37,0,0,1,335.38,336.61Z" style="fill:#455a64"></path><path d="M355.56,321.59c-.08-.07,1.26-1.38,3-3.82a34.25,34.25,0,0,0,2.67-4.51A34.37,34.37,0,0,0,364.6,301a32.8,32.8,0,0,0,0-5.24c-.22-3-.7-4.78-.6-4.81a5.8,5.8,0,0,1,.38,1.26,13.87,13.87,0,0,1,.31,1.5c.09.6.23,1.27.28,2a31.43,31.43,0,0,1,.09,5.31A35.69,35.69,0,0,1,364,307.4a35.22,35.22,0,0,1-2.35,6.07,30.61,30.61,0,0,1-2.8,4.51c-.43.63-.89,1.13-1.27,1.59a14.21,14.21,0,0,1-1,1.14A5.8,5.8,0,0,1,355.56,321.59Z" style="fill:#455a64"></path><path d="M323.49,307.17s2.87-10.63,5.77-14.82c2.73-3.94,5-5.65,9.2-8A56.39,56.39,0,0,1,362.71,278c-7.5-6.69-19.18-7.65-28.14-3.08s-15.43,14.16-14.41,24.16A8.52,8.52,0,0,1,323.49,307.17Z" style="fill:#F29CDE"></path><path d="M358.2,275.72c0-.22,2.75-.45,7.16-.71a14.15,14.15,0,0,0,7.08-2,6,6,0,0,0,2.44-3.19,4.12,4.12,0,0,0-.7-3.93,6,6,0,0,0-3.86-1.81,10.35,10.35,0,0,0-4.23.47,13.31,13.31,0,0,0-6.11,4.06A14.08,14.08,0,0,0,357.4,273l-.28.77c-.07.21-.12.4-.18.57s-.18.47-.24.46-.07-.18-.07-.51c0-.17,0-.38,0-.62l.14-.84a12.33,12.33,0,0,1,2.32-4.87,13.82,13.82,0,0,1,6.52-4.73,11.48,11.48,0,0,1,4.84-.62,7.34,7.34,0,0,1,4.88,2.32,5.11,5.11,0,0,1,1.2,2.64,6,6,0,0,1-.23,2.75,7.32,7.32,0,0,1-3.1,3.94,11.46,11.46,0,0,1-4.12,1.57,20.91,20.91,0,0,1-3.71.31C360.94,276.09,358.21,275.93,358.2,275.72Z" style="fill:#F29CDE"></path><path d="M357.61,276.78c-.07.09-.75-.29-1.93-1.07a44.93,44.93,0,0,1-4.76-3.66,23.64,23.64,0,0,1-5.63-7.05,12,12,0,0,1-1.41-5.33,6.42,6.42,0,0,1,2.75-5.45,5.68,5.68,0,0,1,3.13-.86,7.18,7.18,0,0,1,3,.71,9,9,0,0,1,3.92,4,17.62,17.62,0,0,1,1.93,8.86,17.33,17.33,0,0,1-1.29,5.94c-.57,1.31-1,1.95-1.13,1.91a8.78,8.78,0,0,1,.55-2.11,20.36,20.36,0,0,0,.77-5.75,17.63,17.63,0,0,0-2.08-8.15,7.83,7.83,0,0,0-3.32-3.3,4.47,4.47,0,0,0-6.69,4.24,10.75,10.75,0,0,0,1.18,4.69,24.5,24.5,0,0,0,5.08,6.87c1.77,1.74,3.33,3,4.38,4S357.67,276.7,357.61,276.78Z" style="fill:#F29CDE"></path><path d="M327.54,343.59s-37.52-27.1-50.19-24.95-16,3.67-23.15,9.77a173.66,173.66,0,0,1-15.85,11.08,125.92,125.92,0,0,0-20.24,16.05l-1.59,1.55,16.31,55.38,3.59,6.46,32.11,5.39,38.2-30.46A50.56,50.56,0,0,0,327.54,353Z" style="fill:#455a64"></path><path d="M273.87,416.5s-24.73,31.94-52.2,24.39-35.37-26.1-35.37-26.1l30.22-57.7Z" style="fill:#fafafa"></path><path d="M231.94,373.33a3.27,3.27,0,0,1,.1.75c0,.49.13,1.21.15,2.15a56.85,56.85,0,0,1-.15,7.93,53.67,53.67,0,0,1-2.25,11.55,44.66,44.66,0,0,1-6.43,12.89,37.79,37.79,0,0,1-10.63,9.71,33.77,33.77,0,0,1-10.94,4.32,28,28,0,0,1-7.91.5,19.4,19.4,0,0,1-2.14-.28,6.43,6.43,0,0,1-.74-.14c0-.06,1,.11,2.89.22a29.8,29.8,0,0,0,7.83-.66,34.33,34.33,0,0,0,10.76-4.37,37.85,37.85,0,0,0,10.46-9.61,44.82,44.82,0,0,0,6.39-12.72,55.25,55.25,0,0,0,2.34-11.44,65.68,65.68,0,0,0,.32-7.89c0-.94-.05-1.66-.05-2.15A4.86,4.86,0,0,1,231.94,373.33Z" style="fill:#263238"></path><path d="M245.59,441.27a12.91,12.91,0,0,1-.24-1.62,33.77,33.77,0,0,0-.88-4.34,31.47,31.47,0,0,0-18.61-21.14,32.87,32.87,0,0,0-4.2-1.42,12.69,12.69,0,0,1-1.57-.44s.14,0,.42,0,.68.09,1.2.21a27.46,27.46,0,0,1,4.29,1.28,30.64,30.64,0,0,1,18.83,21.39,27.47,27.47,0,0,1,.72,4.41c.06.53,0,.94.06,1.22A1.34,1.34,0,0,1,245.59,441.27Z" style="fill:#263238"></path><polyline points="256.84 309.38 285.56 320.02 272.03 344.88 244.23 338.07 256.84 309.38" style="fill:#455a64"></polyline><path d="M241.18,351.32a3.31,3.31,0,0,0-1.52,1.45,2.23,2.23,0,0,0,.07,2.12,2.3,2.3,0,0,0,4.22-.36,2.24,2.24,0,0,0-.29-2.1,3.34,3.34,0,0,0-1.73-1.17s.22-.08.61,0a2.7,2.7,0,0,1,1.42.93,2.56,2.56,0,0,1,.44,2.48,2.76,2.76,0,0,1-5.09.43,2.55,2.55,0,0,1,0-2.52,2.69,2.69,0,0,1,1.23-1.16C240.94,351.29,241.17,351.29,241.18,351.32Z" style="fill:#f5f5f5"></path><path d="M268.88,358.54a3.32,3.32,0,0,0-1.51,1.45,2.22,2.22,0,0,0,.06,2.12,2.46,2.46,0,0,0,2.23,1.22,2.49,2.49,0,0,0,2-1.57,2.24,2.24,0,0,0-.3-2.1,3.32,3.32,0,0,0-1.73-1.18s.22-.07.62,0a2.68,2.68,0,0,1,1.41.94,2.58,2.58,0,0,1,.45,2.48,2.76,2.76,0,0,1-5.1.43,2.55,2.55,0,0,1,0-2.52,2.63,2.63,0,0,1,1.23-1.16C268.65,358.51,268.87,358.51,268.88,358.54Z" style="fill:#f5f5f5"></path><path d="M305.41,376.15a3.37,3.37,0,0,0-1.51,1.45,2.25,2.25,0,0,0,.06,2.12,2.31,2.31,0,0,0,4.23-.35,2.24,2.24,0,0,0-.29-2.1,3.36,3.36,0,0,0-1.73-1.18s.22-.07.61,0a2.61,2.61,0,0,1,1.41.94,2.55,2.55,0,0,1,.45,2.48,2.76,2.76,0,0,1-5.09.43,2.68,2.68,0,0,1,1.26-3.68A1,1,0,0,1,305.41,376.15Z" style="fill:#f5f5f5"></path><path d="M317.71,349.2a3.37,3.37,0,0,0-1.51,1.45,2.22,2.22,0,0,0,.06,2.12,2.31,2.31,0,0,0,4.23-.36,2.24,2.24,0,0,0-.29-2.1,3.38,3.38,0,0,0-1.74-1.17s.23-.07.62,0a2.64,2.64,0,0,1,1.41.93,2.6,2.6,0,0,1,.45,2.49,2.76,2.76,0,0,1-5.1.42,2.6,2.6,0,0,1,0-2.52,2.71,2.71,0,0,1,1.24-1.16C317.48,349.17,317.71,349.17,317.71,349.2Z" style="fill:#f5f5f5"></path><path d="M281.09,382.79a3.37,3.37,0,0,0-1.51,1.45,2.22,2.22,0,0,0,.06,2.12,2.46,2.46,0,0,0,2.23,1.22,2.49,2.49,0,0,0,2-1.58,2.22,2.22,0,0,0-.3-2.09,3.32,3.32,0,0,0-1.73-1.18s.22-.07.62,0a2.68,2.68,0,0,1,1.41.94,2.58,2.58,0,0,1,.45,2.48,2.76,2.76,0,0,1-5.1.43,2.57,2.57,0,0,1,0-2.52,2.63,2.63,0,0,1,1.23-1.16C280.86,382.76,281.08,382.76,281.09,382.79Z" style="fill:#f5f5f5"></path><path d="M297.09,354.71a3.32,3.32,0,0,0-1.51,1.45,2.22,2.22,0,0,0,.06,2.12,2.46,2.46,0,0,0,2.23,1.22,2.49,2.49,0,0,0,2-1.57,2.24,2.24,0,0,0-.3-2.1,3.32,3.32,0,0,0-1.73-1.18s.22-.07.62,0a2.68,2.68,0,0,1,1.41.94,2.58,2.58,0,0,1,.45,2.48,2.76,2.76,0,0,1-5.1.43,2.55,2.55,0,0,1,0-2.52,2.63,2.63,0,0,1,1.23-1.16A1,1,0,0,1,297.09,354.71Z" style="fill:#f5f5f5"></path><path d="M300.65,337.32a3.37,3.37,0,0,0-1.51,1.45,2.22,2.22,0,0,0,.06,2.12,2.31,2.31,0,0,0,4.23-.36,2.21,2.21,0,0,0-.3-2.1,3.26,3.26,0,0,0-1.73-1.17s.22-.08.62,0a2.64,2.64,0,0,1,1.41.93,2.58,2.58,0,0,1,.45,2.48,2.76,2.76,0,0,1-5.1.43,2.58,2.58,0,0,1,0-2.52,2.71,2.71,0,0,1,1.24-1.16C300.42,337.29,300.65,337.29,300.65,337.32Z" style="fill:#f5f5f5"></path><path d="M287.07,328.87a3.37,3.37,0,0,0-1.51,1.45,2.25,2.25,0,0,0,.06,2.12,2.31,2.31,0,0,0,4.23-.35,2.24,2.24,0,0,0-.29-2.1,3.36,3.36,0,0,0-1.73-1.18s.22-.07.61,0a2.61,2.61,0,0,1,1.41.94,2.55,2.55,0,0,1,.45,2.48,2.76,2.76,0,0,1-5.09.43,2.58,2.58,0,0,1,0-2.52,2.64,2.64,0,0,1,1.24-1.16C286.84,328.84,287.07,328.84,287.07,328.87Z" style="fill:#f5f5f5"></path><path d="M277,404.67a3.37,3.37,0,0,0-1.51,1.45,2.22,2.22,0,0,0,.06,2.12,2.31,2.31,0,0,0,4.23-.36,2.24,2.24,0,0,0-.3-2.1,3.34,3.34,0,0,0-1.73-1.17s.22-.07.62,0a2.64,2.64,0,0,1,1.41.93,2.6,2.6,0,0,1,.45,2.49,2.76,2.76,0,0,1-5.1.42,2.58,2.58,0,0,1,0-2.52,2.74,2.74,0,0,1,1.23-1.16C276.77,404.64,277,404.64,277,404.67Z" style="fill:#f5f5f5"></path><path d="M253.54,378.71a3.37,3.37,0,0,0-1.51,1.45,2.25,2.25,0,0,0,.06,2.12,2.31,2.31,0,0,0,4.23-.36,2.22,2.22,0,0,0-.29-2.09,3.33,3.33,0,0,0-1.74-1.18s.23-.07.62,0a2.61,2.61,0,0,1,1.41.94,2.58,2.58,0,0,1,.45,2.48,2.76,2.76,0,0,1-5.1.43,2.68,2.68,0,0,1,1.27-3.68C253.31,378.68,253.54,378.68,253.54,378.71Z" style="fill:#f5f5f5"></path><path d="M262.39,340.47a3.37,3.37,0,0,0-1.51,1.45,2.25,2.25,0,0,0,.06,2.12,2.31,2.31,0,0,0,4.23-.36,2.22,2.22,0,0,0-.29-2.09,3.36,3.36,0,0,0-1.73-1.18s.22-.07.61,0a2.61,2.61,0,0,1,1.41.94,2.55,2.55,0,0,1,.45,2.48,2.75,2.75,0,0,1-5.09.42,2.58,2.58,0,0,1,0-2.52,2.67,2.67,0,0,1,1.24-1.15C262.16,340.44,262.39,340.44,262.39,340.47Z" style="fill:#f5f5f5"></path><path d="M265.76,318.55a3.31,3.31,0,0,0-1.52,1.45,2.23,2.23,0,0,0,.06,2.11,2.31,2.31,0,0,0,4.23-.35,2.24,2.24,0,0,0-.29-2.1,3.44,3.44,0,0,0-1.73-1.18s.22-.07.61,0a2.73,2.73,0,0,1,1.42.94,2.56,2.56,0,0,1,.44,2.48,2.76,2.76,0,0,1-5.09.43,2.58,2.58,0,0,1,0-2.52,2.7,2.7,0,0,1,1.24-1.16C265.52,318.51,265.75,318.52,265.76,318.55Z" style="fill:#f5f5f5"></path><path d="M291.43,337.23a1.61,1.61,0,0,1-.22.46c-.16.3-.41.73-.75,1.27a19.56,19.56,0,0,1-3.54,4.13,11.74,11.74,0,0,1-7.43,3c-3.1.11-6.35-.93-9.67-1.92a147.94,147.94,0,0,1-16.89-5.84c-2.1-.91-3.76-1.74-4.89-2.34-.56-.3-1-.56-1.28-.73a2.25,2.25,0,0,1-.43-.28,1.77,1.77,0,0,1,.48.19l1.32.64c1.15.55,2.83,1.32,4.94,2.18a177.22,177.22,0,0,0,16.9,5.69c3.33,1,6.52,2,9.51,1.93a11.47,11.47,0,0,0,7.2-2.79,21,21,0,0,0,3.61-4C291,337.81,291.39,337.21,291.43,337.23Z" style="fill:#263238"></path><path d="M218.34,422.43a2,2,0,0,0,.72,3.73,29.66,29.66,0,0,0,12.69-1.84c8-2.9,7.41.33,7.41.33s-2.88,5-11.58,15c-4.55,5.24-21.11-5.78-20.93-4,.1.95,0,4.06,8.62,10.47,2.09,1.55,12.59,4.82,12.59,4.82h0a3.79,3.79,0,0,0,1.82,7,8.57,8.57,0,0,0,1.73-.08c.18,1.43.44,2.94,3.77,3.67,2.81.62,7.55-1.49,7.55-1.49,3.92,1.13,10.06,0,10.06,0,10.58-2.65,23.28-18.52,23.28-18.52s46-23.28,69.31-40.74,18.54-46.68,18.54-46.68l-35.24,3.41-51.92,49.72c-2.67,5.16-12.47,3.38-13,3.38s-11.41-.53-17.65-.71-16.75,5.17-22.27,9.8Z" style="fill:#ffbe9d"></path><path d="M251.16,455.3a16.18,16.18,0,0,1-4.59,3.15,16.6,16.6,0,0,1-5.23,1.9c-.05-.15,2.29-1,5-2.36S251.07,455.17,251.16,455.3Z" style="fill:#eb996e"></path><path d="M239.78,442.86a12.15,12.15,0,0,1-1.63,2.31,16.76,16.76,0,0,1-5.14,4.51,9.74,9.74,0,0,1-3.64,1.12,8.22,8.22,0,0,1-3.1-.34,9.82,9.82,0,0,1-1.92-.81c-.43-.23-.65-.39-.63-.42s1,.45,2.65.87a8.37,8.37,0,0,0,2.95.22,9.68,9.68,0,0,0,3.45-1.1,18.66,18.66,0,0,0,5.1-4.29A19.42,19.42,0,0,1,239.78,442.86Z" style="fill:#eb996e"></path><path d="M243.86,452.46a5.68,5.68,0,0,1-1.44,1.45,16.85,16.85,0,0,1-9,3.65,5.77,5.77,0,0,1-2,0,32.12,32.12,0,0,0,6.62-1.61A31.69,31.69,0,0,0,243.86,452.46Z" style="fill:#eb996e"></path><path d="M315.13,420.14s.4-.72,1.09-2.05a42.11,42.11,0,0,0,2.49-5.79,38.38,38.38,0,0,0,1.92-9.11,50.33,50.33,0,0,0-.48-11.42c-.54-4-1.18-7.88-1.41-11.42a35.35,35.35,0,0,1,.5-9.41,21,21,0,0,1,2.11-6,15.42,15.42,0,0,1,.91-1.47,2.13,2.13,0,0,1,.38-.47s-.44.7-1.11,2a22.39,22.39,0,0,0-1.93,6,36.25,36.25,0,0,0-.38,9.3c.25,3.52.91,7.35,1.45,11.4a49.3,49.3,0,0,1,.44,11.52,37.44,37.44,0,0,1-2.06,9.19,35.88,35.88,0,0,1-2.65,5.77c-.38.65-.69,1.14-.91,1.47A2.09,2.09,0,0,1,315.13,420.14Z" style="fill:#263238"></path><path d="M320.38,391.1s.05.14.08.42a5.4,5.4,0,0,1,0,1.22,7.72,7.72,0,0,1-1.86,4,10.53,10.53,0,0,1-5.7,3.31,19.42,19.42,0,0,1-3.89.52c-.68,0-1.36,0-2.08,0a2.52,2.52,0,0,1-2.07-.92,1.78,1.78,0,0,1-.24-1.2,3.71,3.71,0,0,1,.33-1.07c.31-.65.64-1.25,1-1.83a16.54,16.54,0,0,1,2.42-3.11,10.35,10.35,0,0,1,5.82-3.08,8,8,0,0,1,4.42.52,6,6,0,0,1,1.06.6,1.48,1.48,0,0,1,.32.28c0,.05-.49-.32-1.45-.69a8.24,8.24,0,0,0-4.29-.35,10.13,10.13,0,0,0-5.54,3.06,17.07,17.07,0,0,0-2.32,3c-.34.57-.67,1.17-1,1.78a1.9,1.9,0,0,0-.12,1.78,2,2,0,0,0,1.66.68c.67,0,1.37,0,2,0a19.74,19.74,0,0,0,3.79-.47,10.38,10.38,0,0,0,5.54-3.09,7.94,7.94,0,0,0,1.94-3.83C320.42,391.69,320.33,391.11,320.38,391.1Z" style="fill:#263238"></path><path d="M319.16,377.31a3.38,3.38,0,0,1,1.11-.63,8.81,8.81,0,0,1,3.41-.71,9,9,0,0,1,5,1.43,9.43,9.43,0,0,1,3.85,5l.08.26-.26.07-.13,0a18.07,18.07,0,0,1-6.33.87,8.94,8.94,0,0,1-2.76-.66,7.74,7.74,0,0,1-2.06-1.35,5.76,5.76,0,0,1-1.79-3,3.53,3.53,0,0,1-.07-1c0-.22,0-.33.05-.33s0,.46.22,1.24a5.72,5.72,0,0,0,1.84,2.8,7.32,7.32,0,0,0,2,1.23,8.31,8.31,0,0,0,2.62.58,18.34,18.34,0,0,0,6.16-.89l.13,0-.18.32a9.08,9.08,0,0,0-3.61-4.78,8.7,8.7,0,0,0-4.72-1.47,9.67,9.67,0,0,0-3.34.52C319.58,377.13,319.18,377.35,319.16,377.31Z" style="fill:#263238"></path><path d="M319.34,408.85a3,3,0,0,1-.26,1,7.76,7.76,0,0,1-1.49,2.49,8.1,8.1,0,0,1-3.6,2.37,8.5,8.5,0,0,1-5.28,0l-.5-.19-.31-.11.2-.28a20.36,20.36,0,0,1,3.31-3.85,7.13,7.13,0,0,1,3.76-1.74,5,5,0,0,1,2.76.37c.6.29.85.56.83.58s-.31-.18-.91-.4a5.15,5.15,0,0,0-2.63-.19,7,7,0,0,0-3.51,1.74,22,22,0,0,0-3.19,3.79l-.11-.39c.15.06.3.12.47.17a8.17,8.17,0,0,0,5,.07,8,8,0,0,0,3.48-2.17A11.35,11.35,0,0,0,319.34,408.85Z" style="fill:#263238"></path><path d="M321,402a11.86,11.86,0,0,0,.52,3.54,7.85,7.85,0,0,0,2.08,3.19,8.07,8.07,0,0,0,4.14,2h0l-.29.18a7.1,7.1,0,0,0-.29-4.56,6.91,6.91,0,0,0-2.34-3,9.73,9.73,0,0,0-3.25-1.42,2.37,2.37,0,0,1,1,.07,7.13,7.13,0,0,1,5.05,4.13,7.42,7.42,0,0,1,.35,4.89l-.06.23-.23,0h0A8.35,8.35,0,0,1,323.3,409a8,8,0,0,1-2.1-3.43,7.72,7.72,0,0,1-.33-2.68A3,3,0,0,1,321,402Z" style="fill:#263238"></path><path d="M318.8,372.58a1.94,1.94,0,0,1-.23.85,7.3,7.3,0,0,1-1.32,2,7.78,7.78,0,0,1-3,2,7.19,7.19,0,0,1-2.11.42,2.81,2.81,0,0,1-1.19-.18,1.37,1.37,0,0,1-.86-1,3.14,3.14,0,0,1,.91-2.2,10.82,10.82,0,0,1,1.43-1.57,5.36,5.36,0,0,1,3.29-1.46,3.78,3.78,0,0,1,2.34.64c.47.36.62.65.59.66s-.23-.21-.7-.49a3.85,3.85,0,0,0-2.21-.44,5.13,5.13,0,0,0-3,1.45,11.23,11.23,0,0,0-1.35,1.52,2.73,2.73,0,0,0-.79,1.8c.08.62.85.81,1.51.78a7,7,0,0,0,2-.37,7.7,7.7,0,0,0,2.89-1.78A11,11,0,0,0,318.8,372.58Z" style="fill:#263238"></path><path d="M312.2,382.39c0,.08-.46.1-.8.63a1.2,1.2,0,0,0-.18,1,1,1,0,0,0,.9.66,1,1,0,0,0,1-.48,1.2,1.2,0,0,0,0-1c-.23-.59-.69-.7-.66-.77s.58-.1,1,.61a1.51,1.51,0,0,1,.08,1.36,1.54,1.54,0,0,1-2.8-.28,1.51,1.51,0,0,1,.34-1.31C311.65,382.18,312.24,382.33,312.2,382.39Z" style="fill:#263238"></path><path d="M327.66,391.38s.09-.1.31-.11a1.17,1.17,0,0,1,.81.39,1.15,1.15,0,0,1,.14,1.36,1.38,1.38,0,0,1-1.57.6,1.43,1.43,0,0,1-.92-1.39,1.31,1.31,0,0,1,.73-1.14c.73-.34,1.21,0,1.16,0s-.46-.05-1,.29a1,1,0,0,0-.44.82,1,1,0,0,0,.61.9.92.92,0,0,0,1-.37.73.73,0,0,0,0-.87C328.14,391.39,327.66,391.46,327.66,391.38Z" style="fill:#263238"></path><path d="M314.58,402.72s.09-.09.28-.08a1,1,0,0,1,.69.4,1.24,1.24,0,0,1,.23,1.19,1.17,1.17,0,0,1-1.35.65,1.15,1.15,0,0,1-1-1.14,1.19,1.19,0,0,1,.72-1,1,1,0,0,1,.79,0c.18.08.23.18.22.2s-.39-.13-.84.17a.82.82,0,0,0-.41.67.67.67,0,0,0,.6.61.69.69,0,0,0,.8-.32.9.9,0,0,0-.08-.8C315,402.79,314.58,402.79,314.58,402.72Z" style="fill:#263238"></path><path d="M272.41,389.3s-9.28,3.25-24.16,4.31c0,0-21.57,3.5-40.25.68s-9.72-26.76-9.72-26.76l26-15.28,32.08-7a10.65,10.65,0,0,1-3.87,7.55l-8.34,4.71,16.72,2.87,22,9.84s.87,2.53-3.35,2.56c0,0,3.44,1.9,3.77,3.61s.14,2.95-4.55,2.86c1.56-.26,4.37,4.35.14,6C278.9,385.22,278.79,390.82,272.41,389.3Z" style="fill:#ffbe9d"></path><path d="M248.25,393.61l.43-.06,1.29-.13c1.12-.1,2.79-.28,4.93-.57s4.76-.68,7.79-1.28a90.87,90.87,0,0,0,10.17-2.6h.07a8.19,8.19,0,0,0,3.88-.43,2.73,2.73,0,0,0,1.42-1.34,3.3,3.3,0,0,0,.2-2l0-.16.14-.08.8-.43c.25-.17.49-.36.73-.54a2.4,2.4,0,0,0,.84-1.51,2.62,2.62,0,0,0-.61-1.68,6.43,6.43,0,0,0-1.42-1.33l-.51-.36.62,0a17,17,0,0,0,2.74-.36,2.89,2.89,0,0,0,1.19-.54,1.16,1.16,0,0,0,.25-1.14c0-.22-.07-.52-.1-.72a1.55,1.55,0,0,0-.27-.57,6.78,6.78,0,0,0-1-1,19.1,19.1,0,0,0-2.4-1.74l-.67-.42.79,0a5.6,5.6,0,0,0,2.25-.43,1.49,1.49,0,0,0,.88-1.82l.13.14-22-9.83.07,0-8-1.37-8.73-1.49-.72-.12.64-.36,8.33-4.71,0,0a10.42,10.42,0,0,0,3.78-7.35l.31.24-32.1,7,.06,0-19.07,11.1-5.21,3-1.36.77c-.31.17-.47.24-.47.24a4.71,4.71,0,0,1,.44-.29l1.34-.82,5.15-3.09,19-11.24,0,0h0L256.32,345l.32-.07,0,.31a10.91,10.91,0,0,1-4,7.75h0l-8.33,4.72-.08-.48,8.73,1.49,8,1.37H261L283,370l.11.05,0,.09a2,2,0,0,1-.1,1.44,2.11,2.11,0,0,1-1,1,6,6,0,0,1-2.47.47l.12-.44a20,20,0,0,1,2.47,1.8,7,7,0,0,1,1.05,1.12,2,2,0,0,1,.34.76l.1.72a2.65,2.65,0,0,1,0,.8,1.26,1.26,0,0,1-.42.74,3.16,3.16,0,0,1-1.38.64,16.37,16.37,0,0,1-2.82.36l.1-.4a6.51,6.51,0,0,1,1.52,1.44,3,3,0,0,1,.69,2,2.78,2.78,0,0,1-1,1.79c-.27.2-.53.4-.8.57l-.84.46.11-.24a3.66,3.66,0,0,1-.24,2.29,3.07,3.07,0,0,1-1.61,1.51,8.36,8.36,0,0,1-4.07.45H273a87.06,87.06,0,0,1-10.23,2.53c-3,.58-5.67,1-7.81,1.21s-3.82.4-5,.47l-1.28.08A3.64,3.64,0,0,1,248.25,393.61Z" style="fill:#eb996e"></path><path d="M279.42,379.66a4.56,4.56,0,0,1-1.09-.27l-2.92-.89a51,51,0,0,0-9.77-2.23c-3.9-.55-7.42-1.07-10-1.48l-3-.5a4.06,4.06,0,0,1-1.09-.26,5.25,5.25,0,0,1,1.12.06l3,.34c2.56.31,6.09.78,10,1.33a44.08,44.08,0,0,1,9.81,2.39c1.22.42,2.2.78,2.87,1.05A4.9,4.9,0,0,1,279.42,379.66Z" style="fill:#eb996e"></path><path d="M278.62,385.13c0,.07-1.34-.31-3.48-.84s-5.11-1.2-8.44-1.7-6.37-.75-8.57-.87a35.23,35.23,0,0,1-3.57-.22,3.42,3.42,0,0,1,1-.11c.62,0,1.51-.05,2.62,0a66.29,66.29,0,0,1,8.64.72,65.36,65.36,0,0,1,8.46,1.86c1.06.32,1.92.59,2.5.81A3.22,3.22,0,0,1,278.62,385.13Z" style="fill:#eb996e"></path><path d="M280.28,373.21a5.09,5.09,0,0,1-1.13-.21c-.71-.17-1.73-.46-3-.89-2.5-.81-5.82-2.29-9.63-3.41a44.77,44.77,0,0,0-10-1.49l-3.09-.17a4.46,4.46,0,0,1-1.14-.12,4.84,4.84,0,0,1,1.14-.08c.74,0,1.8,0,3.11,0a39.58,39.58,0,0,1,10.17,1.36c3.86,1.14,7.15,2.67,9.6,3.57,1.22.46,2.22.8,2.91,1A5,5,0,0,1,280.28,373.21Z" style="fill:#eb996e"></path><path d="M97.57,393.43,206,363l17.74,24.84s-56.07,46.46-81.3,48.6C94.78,440.48,97.57,393.43,97.57,393.43Z" style="fill:#ffbe9d"></path><path d="M210,361.4c0,.14-19.53,5.91-43.71,12.88s-43.82,12.52-43.86,12.38,19.53-5.9,43.71-12.88S210,361.26,210,361.4Z" style="fill:#eb996e"></path></g><g id="freepik--Plants--inject-27"><path d="M131.3,122.93c1.42,7.93,2.9,16.58,9,21.75-.16,1.16-.32,2.46-.49,3.9-.69,5.89-1.37,14-1.76,23A71.47,71.47,0,0,0,133,154.28c-2.82-6.61-7.22-12.7-13.24-16.62a32.53,32.53,0,0,0,18.21,36.41c-.32,8.73-.3,16.61-.11,22.39,0,.2,0,.38,0,.57-1.75-6.06-5.83-14.42-9.84-19a122.4,122.4,0,0,0-13.86-12.87,31.44,31.44,0,0,0,23.72,32.51c.21,5.41.54,8.69.81,8.68s.47-3.79.65-9.91c0-.88.05-1.83.08-2.8,7-2,10.71-4.59,15.14-10.56,4.54-6.13,7.66-13.18,10.75-20.16a31.65,31.65,0,0,0-25.71,24.69c.13-4.54.3-9.64.52-15,.05-1.31.11-2.59.17-3.85,5.84-3,11.38-6.76,15.48-11.88,4.32-5.39,6.9-12.43,5.87-19.26a30.85,30.85,0,0,0-16.85,13.24,61.41,61.41,0,0,0-4,7.27c.18-3.49.36-6.68.5-9.39.1-1.87.18-3.52.24-4.91A38.89,38.89,0,0,0,135.88,99,34.4,34.4,0,0,0,131.3,122.93Z" style="fill:#455a64"></path><path d="M128.57,240.07c-.23-.23-3.31,2.42-8.22,6.78l-2.26,2c-6.69-4-11.45-5-19.36-4.06-8.13,1-15.92,3.7-23.64,6.42a34,34,0,0,0,38.18,1.93c-3.65,3.23-7.75,6.85-12.14,10.66L98,266.5c-6.63-2.37-13.65-3.93-20.66-3.36-7.38.59-14.77,3.76-19.35,9.58a33.09,33.09,0,0,0,22.72,3.43,66.56,66.56,0,0,0,8.62-2.24l-7.7,6.51c-1.54,1.31-2.87,2.44-4,3.43a41.7,41.7,0,0,0-30.8,37.32,36.89,36.89,0,0,0,22-14c5.16-6.94,10.82-14.45,10.39-23,1-.73,2.16-1.56,3.41-2.49,5.1-3.79,11.92-9.21,19.22-15.5a76.17,76.17,0,0,0-9.75,16.64c-3.09,7.06-4.61,15-3.24,22.56a34.91,34.91,0,0,0,15-41c7-6.16,13.19-12,17.56-16.38l.43-.44c-3.45,5.82-7,15.15-7.6,21.64-.64,6.74-.24,13.53.15,20.29a33.71,33.71,0,0,0,7.94-42.43C126.43,243,128.77,240.27,128.57,240.07Z" style="fill:#455a64"></path><path d="M119.18,234.17c-2.57,4.74-8.59,6.49-14.16,6.83a50.93,50.93,0,0,1-38.28-14.67c-3.59-3.58-6.76-8-7-12.93a15.67,15.67,0,0,1,3.42-10c5.09-6.84,14-10.48,22.86-10.32s17.68,3.86,24.84,9.41c4.73,3.67,8.91,8.31,10.91,13.83s1.46,12-2.32,16.19" style="fill:#F29CDE"></path><path d="M119.18,234.17c-2.57,4.74-8.59,6.49-14.16,6.83a50.93,50.93,0,0,1-38.28-14.67c-3.59-3.58-6.76-8-7-12.93a15.67,15.67,0,0,1,3.42-10c5.09-6.84,14-10.48,22.86-10.32s17.68,3.86,24.84,9.41c4.73,3.67,8.91,8.31,10.91,13.83s1.46,12-2.32,16.19" style="opacity:0.5"></path><path d="M126.27,219.34a71.6,71.6,0,0,1-25.64-22.54,38.09,38.09,0,0,1-6.35-13.36c-1.06-4.84-.65-10.15,1.9-14.41s7.43-7.23,12.38-6.78c4.43.4,8.26,3.37,11,6.91,4.84,6.32,6.7,14.38,8,22.22a74.83,74.83,0,0,1,1.36,15.36,31.48,31.48,0,0,1-4,14.76" style="fill:#F29CDE"></path><path d="M126.27,219.34a71.6,71.6,0,0,1-25.64-22.54,38.09,38.09,0,0,1-6.35-13.36c-1.06-4.84-.65-10.15,1.9-14.41s7.43-7.23,12.38-6.78c4.43.4,8.26,3.37,11,6.91,4.84,6.32,6.7,14.38,8,22.22a74.83,74.83,0,0,1,1.36,15.36,31.48,31.48,0,0,1-4,14.76" style="opacity:0.30000000000000004"></path><path d="M140,226.84c3.18-.43,5.74-3.05,7-6s1.33-6.27,1.33-9.48a76.47,76.47,0,0,0-1.83-18.05,38.22,38.22,0,0,0-8-16.14c-2.19-2.51-5.49-4.8-8.62-3.68-2.81,1-4,4.26-4.8,7.14-1.89,7.06-3.23,14.37-2.62,21.64s3.36,14.57,8.64,19.62a13.54,13.54,0,0,0,8,4.08c3,.25,6.36-1.32,7.46-4.17" style="fill:#F29CDE"></path><path d="M140,226.84c3.18-.43,5.74-3.05,7-6s1.33-6.27,1.33-9.48a76.47,76.47,0,0,0-1.83-18.05,38.22,38.22,0,0,0-8-16.14c-2.19-2.51-5.49-4.8-8.62-3.68-2.81,1-4,4.26-4.8,7.14-1.89,7.06-3.23,14.37-2.62,21.64s3.36,14.57,8.64,19.62a13.54,13.54,0,0,0,8,4.08c3,.25,6.36-1.32,7.46-4.17" style="fill:#fff;opacity:0.1"></path><path d="M129.87,237.05a36.15,36.15,0,0,0-23.7-10,40.34,40.34,0,0,0-24.71,7.56A19.33,19.33,0,0,0,74.73,242c-1.4,3.07-1.41,6.94.67,9.59,2.33,3,6.48,3.68,10.23,4a96.52,96.52,0,0,0,19.15-.48c5.7-.72,11.8-.82,16.54-4.06s9.09-8.24,8.55-14" style="fill:#F29CDE"></path><path d="M102.82,224.35c0-.63,2.87-1.4,6.53-1.71s6.66-.06,6.72.57-2.87,1.39-6.53,1.7S102.88,225,102.82,224.35Z" style="fill:#f5f5f5"></path><path d="M115.86,223c-.23.59-3.23-.07-6.68-1.47s-6.07-3-5.83-3.59,3.23.07,6.69,1.47S116.1,222.38,115.86,223Z" style="fill:#f5f5f5"></path><path d="M107.56,215.13c.32-.54,2.52.18,4.78,1.82s3.61,3.51,3.2,4-2.39-.56-4.55-2.13S107.24,215.68,107.56,215.13Z" style="fill:#f5f5f5"></path><path d="M107.46,209.39c.42-.47,3.09,1.22,6,3.77s4.89,5,4.47,5.48-3.09-1.21-6-3.77S107,209.87,107.46,209.39Z" style="fill:#f5f5f5"></path><path d="M113.45,206.46c.59-.23,2.08,2.16,3.46,5.29s2.14,5.83,1.57,6.11-2.26-2-3.66-5.19S112.87,206.69,113.45,206.46Z" style="fill:#f5f5f5"></path><path d="M119.45,205.85c.62-.07,1.31,2.44,1.53,5.59s-.12,5.74-.75,5.76-1.32-2.49-1.53-5.6S118.82,205.92,119.45,205.85Z" style="fill:#f5f5f5"></path><path d="M112.94,226.26c0,.12-4.41,2.25-10,4.76s-10.1,4.46-10.16,4.34,4.41-2.24,10-4.76S112.89,226.15,112.94,226.26Z" style="fill:#263238"></path><path d="M113.52,225.26a9.28,9.28,0,0,1-2.1.59c-1.3.29-3.12.64-5.15.94s-3.87.5-5.21.59a9.62,9.62,0,0,1-2.17.05,10.34,10.34,0,0,1,2.14-.37l5.17-.72,5.16-.81A11.85,11.85,0,0,1,113.52,225.26Z" style="fill:#263238"></path><path d="M115,222.69c0,.12-4.7-.27-10.48-.87S94,220.61,94,220.49s4.71.26,10.48.87S115,222.56,115,222.69Z" style="fill:#263238"></path><path d="M114,221.68a7.11,7.11,0,0,1-1.16-.38c-.73-.26-1.78-.67-3.06-1.2-2.58-1-6.1-2.6-9.9-4.49s-7.17-3.74-9.57-5.15c-1.2-.7-2.16-1.29-2.82-1.71a5.93,5.93,0,0,1-1-.69,7.61,7.61,0,0,1,1.08.54l2.89,1.58c2.43,1.34,5.82,3.14,9.61,5s7.29,3.48,9.82,4.6l3,1.34A6.39,6.39,0,0,1,114,221.68Z" style="fill:#263238"></path><path d="M118,218c-.07.1-4.9-3.24-10.78-7.47s-10.58-7.74-10.51-7.84,4.9,3.24,10.78,7.47S118.09,217.91,118,218Z" style="fill:#263238"></path><path d="M104.92,192.66a4.5,4.5,0,0,1,.7.78c.42.53,1,1.3,1.74,2.27,1.43,1.93,3.32,4.68,5.24,7.81s3.5,6.08,4.57,8.24c.54,1.07,1,2,1.22,2.57a4.79,4.79,0,0,1,.38,1,4.76,4.76,0,0,1-.54-.9l-1.35-2.51c-1.14-2.11-2.75-5-4.67-8.14s-3.75-5.89-5.12-7.87c-.64-.92-1.18-1.71-1.61-2.34A4.42,4.42,0,0,1,104.92,192.66Z" style="fill:#263238"></path><path d="M114.81,193.62a2.94,2.94,0,0,1,.38.77c.23.51.53,1.25.88,2.18.71,1.86,1.61,4.45,2.48,7.35s1.53,5.57,2,7.51c.21,1,.37,1.75.46,2.3a3.41,3.41,0,0,1,.1.86,28.27,28.27,0,0,1-.88-3.09c-.5-1.91-1.21-4.55-2.07-7.45s-1.72-5.49-2.34-7.37A26.53,26.53,0,0,1,114.81,193.62Z" style="fill:#263238"></path><path d="M120.19,193.54a17.13,17.13,0,0,1,.77,2.89c.4,1.8.88,4.3,1.29,7.09s.67,5.32.8,7.16a16.88,16.88,0,0,1,.1,3,21.66,21.66,0,0,1-.42-2.95c-.22-1.83-.53-4.35-.93-7.13s-.84-5.28-1.16-7.09A22.19,22.19,0,0,1,120.19,193.54Z" style="fill:#263238"></path><path d="M89.38,236.64a1.57,1.57,0,0,0,1,1.34,2,2,0,0,0,1.82-.45,2.43,2.43,0,0,0,1-1.75A1.86,1.86,0,0,0,91.26,234a2.55,2.55,0,0,0-1.88,2.63" style="fill:#263238"></path><path d="M83.6,208.45a1.53,1.53,0,0,0,.94,1.32,2,2,0,0,0,1.79-.45,2.34,2.34,0,0,0,1-1.71,1.82,1.82,0,0,0-1.9-1.73,2.48,2.48,0,0,0-1.84,2.57" style="fill:#263238"></path><path d="M103.37,194.47a1.54,1.54,0,0,0,.94,1.31,2,2,0,0,0,1.79-.45,2.31,2.31,0,0,0,1-1.7,1.82,1.82,0,0,0-1.9-1.74,2.5,2.5,0,0,0-1.84,2.58" style="fill:#263238"></path><path d="M91.74,220.6a1,1,0,0,0,.65.9,1.36,1.36,0,0,0,1.24-.3,1.63,1.63,0,0,0,.69-1.18A1.25,1.25,0,0,0,93,218.83a1.72,1.72,0,0,0-1.27,1.77" style="fill:#263238"></path><path d="M113.21,194.08a1.07,1.07,0,0,0,.66.9,1.37,1.37,0,0,0,1.23-.3,1.63,1.63,0,0,0,.69-1.18,1.25,1.25,0,0,0-1.3-1.2,1.74,1.74,0,0,0-1.28,1.78" style="fill:#263238"></path><path d="M118.6,194a1,1,0,0,0,.65.9,1.34,1.34,0,0,0,1.23-.31,1.57,1.57,0,0,0,.7-1.17,1.26,1.26,0,0,0-1.31-1.2A1.72,1.72,0,0,0,118.6,194" style="fill:#263238"></path><path d="M96.62,228.25a1.07,1.07,0,0,0,.66.9,1.34,1.34,0,0,0,1.23-.3,1.63,1.63,0,0,0,.69-1.18,1.24,1.24,0,0,0-1.3-1.19,1.72,1.72,0,0,0-1.28,1.77" style="fill:#263238"></path><path d="M94.57,202.57a1,1,0,0,0,.65.91,1.37,1.37,0,0,0,1.23-.31,1.59,1.59,0,0,0,.7-1.18,1.26,1.26,0,0,0-1.31-1.19,1.71,1.71,0,0,0-1.27,1.77" style="fill:#263238"></path><path d="M130.86,247c3.79-1.74,7.47-4.13,9.59-7.72,1.92-3.24,2.38-7.16,2.23-10.92-.22-5.73-2.13-11.9-6.94-15-3.86-2.49-9-2.48-13.24-.72a25.22,25.22,0,0,0-10.38,8.79A25.9,25.9,0,0,0,107,233.66,15.2,15.2,0,0,0,111,246c3.2,3.14,12.62,4.74,19.89,1" style="fill:#F29CDE"></path><path d="M130.86,247c3.79-1.74,7.47-4.13,9.59-7.72,1.92-3.24,2.38-7.16,2.23-10.92-.22-5.73-2.13-11.9-6.94-15-3.86-2.49-9-2.48-13.24-.72a25.22,25.22,0,0,0-10.38,8.79A25.9,25.9,0,0,0,107,233.66,15.2,15.2,0,0,0,111,246c3.2,3.14,12.62,4.74,19.89,1" style="fill:#fff;opacity:0.2"></path><path d="M448.13,416.28c-5.63,3.31-11.79,6.88-14,13-.93.21-2,.45-3.11.73-4.67,1.14-11,2.9-17.95,5.14a57.76,57.76,0,0,0,11.69-8.72,29.83,29.83,0,0,0,8.91-14.76,26.4,26.4,0,0,0-22.55,24.11c-6.73,2.22-12.71,4.46-17.05,6.24l-.43.18c4.12-3,9.32-8.5,11.66-12.83a99.82,99.82,0,0,0,5.87-14.18,25.51,25.51,0,0,0-18,27.21c-4.05,1.69-6.45,2.86-6.37,3.07s3-.72,7.72-2.3l2.16-.73c3.49,4.74,6.5,6.85,12.29,8.53,5.95,1.72,12.18,2.11,18.36,2.49a25.66,25.66,0,0,0-26-12.59c3.49-1.18,7.41-2.49,11.59-3.85l3-1a37.61,37.61,0,0,0,13.39,8.43c5.32,1.76,11.4,1.73,16.3-1a25,25,0,0,0-14.81-9.08,48.32,48.32,0,0,0-6.66-1l7.28-2.27c1.45-.45,2.72-.86,3.8-1.21A31.54,31.54,0,0,0,467.59,413,27.9,27.9,0,0,0,448.13,416.28Z" style="fill:#455a64"></path><path d="M357.28,441.67c-4.07-1.59-6.07-6.27-6.9-10.72a41.27,41.27,0,0,1,8-32.26c2.53-3.25,5.8-6.24,9.71-6.92a12.65,12.65,0,0,1,8.36,1.76c6,3.42,9.83,10.2,10.58,17.37s-1.35,14.62-5.11,20.93c-2.49,4.17-5.81,8-10.05,10.15s-9.51,2.37-13.27-.25" style="fill:#F29CDE"></path><path d="M357.28,441.67c-4.07-1.59-6.07-6.27-6.9-10.72a41.27,41.27,0,0,1,8-32.26c2.53-3.25,5.8-6.24,9.71-6.92a12.65,12.65,0,0,1,8.36,1.76c6,3.42,9.83,10.2,10.58,17.37s-1.35,14.62-5.11,20.93c-2.49,4.17-5.81,8-10.05,10.15s-9.51,2.37-13.27-.25" style="opacity:0.5"></path><path d="M369.91,445.91A58.29,58.29,0,0,1,385.51,423a31,31,0,0,1,10.13-6.43,16.15,16.15,0,0,1,11.79.09c3.68,1.63,6.56,5.27,6.68,9.29.12,3.61-1.89,7-4.47,9.52-4.61,4.52-10.91,6.81-17.09,8.67a60.45,60.45,0,0,1-12.23,2.61,25.38,25.38,0,0,1-12.27-1.73" style="fill:#F29CDE"></path><path d="M369.91,445.91A58.29,58.29,0,0,1,385.51,423a31,31,0,0,1,10.13-6.43,16.15,16.15,0,0,1,11.79.09c3.68,1.63,6.56,5.27,6.68,9.29.12,3.61-1.89,7-4.47,9.52-4.61,4.52-10.91,6.81-17.09,8.67a60.45,60.45,0,0,1-12.23,2.61,25.38,25.38,0,0,1-12.27-1.73" style="opacity:0.30000000000000004"></path><path d="M365.23,457.66c.67,2.53,3,4.32,5.55,5a20.1,20.1,0,0,0,7.77.13,62.27,62.27,0,0,0,14.34-3.26,31,31,0,0,0,12.2-8c1.8-2,3.32-4.89,2.11-7.3-1.09-2.16-3.83-2.82-6.23-3.15-5.86-.83-11.88-1.18-17.67,0s-11.4,4.14-14.94,8.89a11,11,0,0,0-2.49,6.85,5.94,5.94,0,0,0,4.1,5.59" style="fill:#F29CDE"></path><path d="M365.23,457.66c.67,2.53,3,4.32,5.55,5a20.1,20.1,0,0,0,7.77.13,62.27,62.27,0,0,0,14.34-3.26,31,31,0,0,0,12.2-8c1.8-2,3.32-4.89,2.11-7.3-1.09-2.16-3.83-2.82-6.23-3.15-5.86-.83-11.88-1.18-17.67,0s-11.4,4.14-14.94,8.89a11,11,0,0,0-2.49,6.85,5.94,5.94,0,0,0,4.1,5.59" style="fill:#fff;opacity:0.1"></path><path d="M356,450.56a29.32,29.32,0,0,0,5.7-20.06,32.75,32.75,0,0,0-8.53-19.14,15.71,15.71,0,0,0-6.62-4.68,7.64,7.64,0,0,0-7.65,1.49c-2.16,2.16-2.32,5.57-2.18,8.62A78.06,78.06,0,0,0,339,432.15c1.14,4.52,1.82,9.42,4.9,12.92s7.54,6.49,12.09,5.49" style="fill:#F29CDE"></path><path d="M363.56,427.53c.5-.1,1.41,2.17,2,5.09s.71,5.36.21,5.46-1.4-2.17-2-5.08S363.06,427.64,363.56,427.53Z" style="fill:#f5f5f5"></path><path d="M366,437.89c-.49-.13-.26-2.6.53-5.52s1.81-5.18,2.31-5.05.26,2.61-.53,5.53S366.47,438,366,437.89Z" style="fill:#f5f5f5"></path><path d="M371.45,430.43c.46.21.11,2.05-1,4s-2.47,3.26-2.89,3,.22-2,1.27-3.87S371,430.23,371.45,430.43Z" style="fill:#f5f5f5"></path><path d="M376.06,429.78c.42.29-.67,2.62-2.44,5.19s-3.55,4.43-4,4.14.67-2.61,2.44-5.19S375.64,429.49,376.06,429.78Z" style="fill:#f5f5f5"></path><path d="M379,434.32c.24.45-1.54,1.88-3.92,3.3s-4.48,2.31-4.76,1.88,1.4-2,3.81-3.47S378.77,433.87,379,434.32Z" style="fill:#f5f5f5"></path><path d="M380.1,439.08c.12.5-1.83,1.3-4.35,1.79s-4.63.47-4.71,0,1.87-1.31,4.36-1.79S380,438.58,380.1,439.08Z" style="fill:#f5f5f5"></path><path d="M363,435.87c-.08.05-2.24-3.33-4.81-7.55s-4.59-7.69-4.5-7.74,2.24,3.33,4.81,7.55S363.11,435.82,363,435.87Z" style="fill:#263238"></path><path d="M363.89,436.24a7.5,7.5,0,0,1-.68-1.63c-.37-1-.83-2.46-1.27-4.06s-.78-3.06-1-4.13a9,9,0,0,1-.26-1.75,7.84,7.84,0,0,1,.51,1.69c.32,1.18.68,2.56,1.09,4.09l1.17,4.08A9.07,9.07,0,0,1,363.89,436.24Z" style="fill:#263238"></path><path d="M366.1,437.13c-.1,0-.25-3.81-.34-8.52s-.06-8.52,0-8.52.25,3.81.34,8.52S366.2,437.13,366.1,437.13Z" style="fill:#263238"></path><path d="M366.82,436.26a5.07,5.07,0,0,1,.19-1c.14-.62.36-1.5.66-2.59.59-2.17,1.49-5.16,2.63-8.41s2.3-6.14,3.2-8.21c.45-1,.82-1.87,1.1-2.44a5.54,5.54,0,0,1,.45-.87,4.34,4.34,0,0,1-.32.93l-1,2.48c-.83,2.09-1.95,5-3.09,8.23s-2.07,6.21-2.73,8.36l-.77,2.56A4.43,4.43,0,0,1,366.82,436.26Z" style="fill:#263238"></path><path d="M370.17,439.13c-.09-.05,2.12-4.26,4.94-9.41s5.19-9.29,5.28-9.24-2.13,4.26-4.95,9.42S370.26,439.18,370.17,439.13Z" style="fill:#263238"></path><path d="M389.28,426.08a4.24,4.24,0,0,1-.57.64c-.37.4-.94.95-1.64,1.62-1.42,1.35-3.44,3.15-5.78,5s-4.54,3.42-6.17,4.5c-.81.53-1.48,1-1.95,1.23a4.41,4.41,0,0,1-.75.41,3.31,3.31,0,0,1,.67-.53l1.88-1.33c1.59-1.13,3.77-2.72,6.09-4.57s4.37-3.6,5.83-4.9l1.72-1.53A3.76,3.76,0,0,1,389.28,426.08Z" style="fill:#263238"></path><path d="M389.49,434.14a2.64,2.64,0,0,1-.59.38c-.39.23-1,.55-1.67.92-1.42.76-3.42,1.74-5.67,2.73s-4.33,1.78-5.84,2.31c-.76.27-1.38.47-1.81.6a2.92,2.92,0,0,1-.69.17,21.25,21.25,0,0,1,2.4-1c1.5-.6,3.55-1.43,5.79-2.41s4.26-1.93,5.71-2.62A18.91,18.91,0,0,1,389.49,434.14Z" style="fill:#263238"></path><path d="M390.08,438.46a12.61,12.61,0,0,1-2.25.9c-1.41.5-3.37,1.14-5.57,1.75s-4.22,1.06-5.69,1.35a15.7,15.7,0,0,1-2.39.38,15.54,15.54,0,0,1,2.34-.63c1.44-.36,3.44-.86,5.64-1.46s4.16-1.2,5.59-1.63A17.67,17.67,0,0,1,390.08,438.46Z" style="fill:#263238"></path><path d="M352.34,417.93a1.25,1.25,0,0,0-1,.91,1.63,1.63,0,0,0,.54,1.43,1.93,1.93,0,0,0,1.51.65,1.51,1.51,0,0,0,1.23-1.73,2.09,2.09,0,0,0-2.3-1.26" style="fill:#263238"></path><path d="M374.45,410.48a1.24,1.24,0,0,0-1,.9,1.61,1.61,0,0,0,.53,1.39,1.87,1.87,0,0,0,1.48.64,1.47,1.47,0,0,0,1.2-1.7,2,2,0,0,0-2.25-1.23" style="fill:#263238"></path><path d="M387.67,425a1.25,1.25,0,0,0-1,.89,1.62,1.62,0,0,0,.53,1.4,1.89,1.89,0,0,0,1.48.64,1.48,1.48,0,0,0,1.2-1.7,2,2,0,0,0-2.25-1.23" style="fill:#263238"></path><path d="M365.48,418.24a.87.87,0,0,0-.66.62,1.09,1.09,0,0,0,.37,1,1.28,1.28,0,0,0,1,.44,1,1,0,0,0,.83-1.17,1.39,1.39,0,0,0-1.55-.85" style="fill:#263238"></path><path d="M389,432.9a.85.85,0,0,0-.67.61,1.12,1.12,0,0,0,.37,1,1.32,1.32,0,0,0,1,.45,1,1,0,0,0,.83-1.17,1.39,1.39,0,0,0-1.55-.85" style="fill:#263238"></path><path d="M389.55,437.22a.85.85,0,0,0-.66.62,1.08,1.08,0,0,0,.36,1,1.31,1.31,0,0,0,1,.44,1,1,0,0,0,.83-1.17,1.39,1.39,0,0,0-1.55-.85" style="fill:#263238"></path><path d="M359.81,422.93a.85.85,0,0,0-.66.62,1.09,1.09,0,0,0,.36,1,1.31,1.31,0,0,0,1,.44,1,1,0,0,0,.83-1.17,1.39,1.39,0,0,0-1.55-.85" style="fill:#263238"></path><path d="M380.27,418.73a.87.87,0,0,0-.66.62,1.1,1.1,0,0,0,.37,1,1.28,1.28,0,0,0,1,.44,1,1,0,0,0,.83-1.17,1.39,1.39,0,0,0-1.55-.85" style="fill:#263238"></path><path d="M348.13,452.34c1.77,2.88,4.06,5.61,7.16,7a16,16,0,0,0,9,.71c4.59-.75,9.37-2.89,11.39-7.07a11.79,11.79,0,0,0-.73-10.73,20.36,20.36,0,0,0-8.1-7.48,21,21,0,0,0-10.38-2.93,12.32,12.32,0,0,0-9.55,4.45c-2.22,2.88-2.57,10.62,1.2,16.09" style="fill:#F29CDE"></path><path d="M348.13,452.34c1.77,2.88,4.06,5.61,7.16,7a16,16,0,0,0,9,.71c4.59-.75,9.37-2.89,11.39-7.07a11.79,11.79,0,0,0-.73-10.73,20.36,20.36,0,0,0-8.1-7.48,21,21,0,0,0-10.38-2.93,12.32,12.32,0,0,0-9.55,4.45c-2.22,2.88-2.57,10.62,1.2,16.09" style="fill:#fff;opacity:0.2"></path></g></svg>