<svg xmlns="http://www.w3.org/2000/svg" viewBox="0 0 500 500"><g id="freepik--Shadows--inject-47"><ellipse cx="250" cy="447.5" rx="109.24" ry="17.26" style="fill:#ebebeb"></ellipse><ellipse cx="128.83" cy="435.98" rx="109.24" ry="17.26" style="fill:#ebebeb"></ellipse><ellipse cx="371.17" cy="435.98" rx="109.24" ry="17.26" style="fill:#ebebeb"></ellipse></g><g id="freepik--Floor--inject-47"><polygon points="33.4 392.79 87.55 392.55 141.7 392.46 250 392.3 358.3 392.46 412.45 392.55 466.6 392.79 412.45 393.04 358.3 393.13 250 393.29 141.7 393.13 87.55 393.04 33.4 392.79" style="fill:#263238"></polygon></g><g id="freepik--character-3--inject-47"><path d="M372.22,370.2s0,43.06,0,43.09c0,8.24-.07,15.46-.47,19.19a.13.13,0,0,1,0,.06,5.75,5.75,0,0,1-.6,2.55.1.1,0,0,1,0,.05c-2.45,1.67-68.25,3.92-70.57,3.23s-.53-7.37,2-9.49,27.3-14.26,27.3-14.26l.42-43Z" style="fill:#dd6a57"></path><path d="M372.21,404.45v8.84c0,8.24-.07,15.46-.47,19.19a.13.13,0,0,1,0,.06,11.06,11.06,0,0,1-.6,2.55.1.1,0,0,1,0,.05c-2.45,1.67-68.25,3.92-70.57,3.23s-.53-7.37,2-9.49,27.3-14.26,27.3-14.26l-.12-9Z" style="fill:#455a64"></path><path d="M300.52,438.37c2.32.7,68.12-1.56,70.57-3.23.94-.63,1.17-10.23,1.12-21.85v-.36l-42.46,1,0,.72s-24.8,12.12-27.3,14.25S298.19,437.68,300.52,438.37Z" style="fill:#c7c7c7"></path><path d="M301.18,435.79c11.08-.65,55.84-2.23,66.84-2,.09,0,.09.06,0,.07-11,.88-55.74,2.1-66.84,2.15C301,436,300.94,435.81,301.18,435.79Z" style="fill:#263238"></path><path d="M326.22,414.88c4.33-1,9.69-.48,13.13,2.52.14.11,0,.3-.17.26a61.52,61.52,0,0,0-12.93-2.23A.28.28,0,0,1,326.22,414.88Z" style="fill:#263238"></path><path d="M323.13,416.88c4.34-1,9.7-.47,13.14,2.52.13.12,0,.31-.18.27a61.44,61.44,0,0,0-12.92-2.24A.28.28,0,0,1,323.13,416.88Z" style="fill:#263238"></path><path d="M320,418.89c4.34-1,9.7-.48,13.14,2.52.14.12,0,.3-.17.26a61.63,61.63,0,0,0-12.93-2.23A.28.28,0,0,1,320,418.89Z" style="fill:#263238"></path><polygon points="375.99 210.53 374.35 339.24 373.38 415.11 327.32 414.19 336.33 207.96 336.79 184.35 375.68 184.35 375.99 210.53" style="fill:#C4A8EF"></polygon><path d="M329.25,406.5c7.19-.06,5.12-.14,12.32-.12,3.51,0,26.64.08,29.92.67a.07.07,0,0,1,0,.14c-3.29.51-26.42,0-29.93-.05-7.19-.16-5.13-.19-12.32-.43A.11.11,0,0,1,329.25,406.5Z" style="fill:#263238"></path><path d="M349.77,218.48a.08.08,0,0,0-.16,0c0,12.05-.38,24.09-.67,36.13s-.64,24.07-1,36.11c-.65,24.07-1.62,48.12-2.51,72.17q-.75,20.24-1.87,40.47c0,.09.14.08.15,0,1.74-24,3.42-48.07,4.37-72.15s1.64-48.12,1.76-72.2C349.93,245.49,349.74,232,349.77,218.48Z" style="fill:#263238"></path><polygon points="375.99 210.53 374.35 339.24 343.48 184.35 375.68 184.35 375.99 210.53" style="fill:#263238"></polygon><path d="M381.39,371.49s5.51,41,5.51,41.07c.05,8.24.24,15.46.69,19.18a.13.13,0,0,0,0,.06,5.59,5.59,0,0,0,.63,2.54s0,.05,0,.06c2.47,1.64,68.29,3.14,70.6,2.42s.44-7.38-2.06-9.47-27.47-13.94-27.47-13.94l-6.91-43Z" style="fill:#dd6a57"></path><path d="M386.18,403.75c.43,5.14.72,8.78.72,8.81.05,8.24.24,15.46.69,19.18a.13.13,0,0,0,0,.06,10.65,10.65,0,0,0,.63,2.54s0,.05,0,.06c2.47,1.64,68.29,3.14,70.6,2.42s.44-7.38-2.06-9.47-27.47-13.94-27.47-13.94l-.82-9.08Z" style="fill:#455a64"></path><path d="M458.87,436.82c-2.31.72-68.13-.78-70.6-2.43-.95-.61-1.29-10.21-1.37-21.82v-.37l42.48.49,0,.72s24.94,11.84,27.47,13.94S461.19,436.1,458.87,436.82Z" style="fill:#c7c7c7"></path><path d="M458.19,434.25c-11.09-.53-55.87-1.6-66.87-1.27-.09,0-.09.06,0,.07,11,.76,55.76,1.46,66.86,1.38C458.42,434.43,458.42,434.26,458.19,434.25Z" style="fill:#263238"></path><path d="M434.1,412.92c-4.35-.91-9.7-.37-13.11,2.67-.13.12,0,.3.18.26a61.36,61.36,0,0,1,12.9-2.38A.28.28,0,0,0,434.1,412.92Z" style="fill:#263238"></path><path d="M437.21,414.89c-4.35-.91-9.7-.36-13.11,2.67-.13.12,0,.3.18.26a61.36,61.36,0,0,1,12.9-2.38A.28.28,0,0,0,437.21,414.89Z" style="fill:#263238"></path><path d="M440.32,416.86c-4.35-.91-9.71-.36-13.11,2.67-.13.12,0,.3.18.26a61.36,61.36,0,0,1,12.9-2.38A.28.28,0,0,0,440.32,416.86Z" style="fill:#263238"></path><path d="M340.74,184.31v0c.17.8,2.89,13.42,5.71,24.26,2.05,7.92,4.16,14.88,5.37,15.6,1.37.81,8.05,3.77,10.29,4.7l10.22,97.75L386,414.6l46-2.4L399.21,212,394,184.31Z" style="fill:#C4A8EF"></path><path d="M386.27,406.2c7.18-.46,5.11-.43,12.29-.82,3.52-.19,26.61-1.41,29.92-1,.07,0,.08.14,0,.15-3.26.69-26.37,1.51-29.89,1.64-7.18.24-5.12.09-12.31.26A.11.11,0,1,1,386.27,406.2Z" style="fill:#263238"></path><path d="M412.62,381.14c-1.13-6.28-2.25-12.57-3.41-18.84q-3.46-18.85-7-37.67-7.09-37.71-14-75.44c-2.58-14.21-2.51-12.87-4.77-27.14,0-.1-.18-.08-.16,0,2.16,12.67,1.14,9.89,3.18,22.59s4.18,25.13,6.43,37.67c4.52,25.19,9.26,50.34,14,75.48q2,10.56,4.09,21.13c1.41,7.18,3,14.31,4.48,21.48,0,.16.29.14.26,0C414.71,394,413.76,387.55,412.62,381.14Z" style="fill:#263238"></path><path d="M400.17,223c-1.21-.3-2.49-.4-3.72-.6-1-.15-2-.33-3-.54a13.07,13.07,0,0,1-5.22-2.2c-1.7-1.33-2.56-3.33-3.39-5.26-.48-1.15-1-2.29-1.5-3.42q-.36-.83-.75-1.65a18.75,18.75,0,0,1-.93-2c0-.09-.19,0-.15,0a11.58,11.58,0,0,1,.42,1.42c.17.55.33,1.11.5,1.66.3,1,.6,2,.92,2.95a24,24,0,0,0,2.1,5.17c1.81,2.89,5.05,4,8.3,4.46.93.12,1.86.19,2.8.24a19.94,19.94,0,0,0,3.54,0A.17.17,0,0,0,400.17,223Z" style="fill:#263238"></path><path d="M348.27,222.44A87.41,87.41,0,0,1,362,228.85c.18.1.06.37-.12.29-4.64-2-9.37-3.9-13.9-6.15A.3.3,0,0,1,348.27,222.44Z" style="fill:#263238"></path><path d="M346.88,190.67c0-.16.29-.2.29,0a152.13,152.13,0,0,0,.78,15.5c.21,2.39,2.14,15.6,6.28,14.63.69-.16,1-.84,1.16-1.89a17.16,17.16,0,0,0-.55-4c-.46-2.76-.83-5.53-1.07-8.33a75.51,75.51,0,0,1,.17-15.62.13.13,0,0,1,.26,0,143.87,143.87,0,0,0,1.27,21.56c.51,3.44,2.24,8.61-1.35,9.14s-6-8.13-6.47-10.49A78.62,78.62,0,0,1,346.88,190.67Z" style="fill:#263238"></path><path d="M354.12,221.13a23.87,23.87,0,0,1,.93,2.74,6.24,6.24,0,0,1,.39,2.25.16.16,0,0,1-.29.06,8.1,8.1,0,0,1-1-2.19c-.32-.85-.65-1.69-.94-2.54A.46.46,0,0,1,354.12,221.13Z" style="fill:#263238"></path><path d="M336.33,208l10.13.65L376,210.53,399.21,212,394,184.31H340.74v0h-4Z" style="fill:#263238"></path><path d="M354.58,127.51c-1.78,7.28-16.1,40.48-16,43,0,.58,2.92.43,3.21,1.35C343,175.56,331.65,203,327.46,204c-12.34,2.78-27.15,4.82-26.93-5.3.35-15.88,26.72-55.68,41-69.58C351,120,356.33,120.32,354.58,127.51Z" style="fill:#ad6359"></path><path d="M354.35,134c-3.39,9.09-8.12,22.38-8.12,22.38l-10-1.92-16.09-3.1s13.94-18.19,26.75-27.73c6.53-4.86,9.27-4.7,10-2.25h0C357.67,124,356.07,129.37,354.35,134Z" style="fill:#C4A8EF"></path><path d="M354.35,134c-3.39,9.09-8.12,22.38-8.12,22.38l-10-1.92,20.65-33.07C357.67,124,356.07,129.37,354.35,134Z" style="fill:#263238"></path><path d="M346.94,150.37a164.06,164.06,0,0,0-21.38-3.48c-.1,0-.11.14,0,.15,2,.23,12,2.36,21.38,3.5C347,150.55,347.05,150.4,346.94,150.37Z" style="fill:#263238"></path><path d="M402.71,205c-.16.18-69.34.39-70-.32-.88-1,14.74-75.95,21.84-85.21,1.52-2,6.53-2.53,10.79-2a19,19,0,0,1,3.28.67l.11,0a7.84,7.84,0,0,1,2.41,1.18c11.85,9.46,15,18.67,18,26.35,2.19,5.69,4.8,15.38,7.13,25.31C400.14,187.41,403.28,204.39,402.71,205Z" style="fill:#C4A8EF"></path><rect x="364.57" y="147.72" width="12.38" height="2" transform="translate(741.52 297.44) rotate(180)" style="fill:#263238;opacity:0.1"></rect><path d="M396.28,171.05l-30.91-53.54a19,19,0,0,1,3.28.67l.11,0a7.84,7.84,0,0,1,2.41,1.18c11.85,9.46,15,18.67,18,26.35C391.34,151.43,394,161.12,396.28,171.05Z" style="fill:#263238"></path><path d="M372.55,129.69c4.55,6,29.66,27.62,30.55,29.92s-6.91,10.73-6.8,11.69c.44,3.9,8.46,28.93,11.78,26.2,4.37-3.58,24.5-28.53,21.58-39.27S382.05,122.57,375,120.48,368.05,123.81,372.55,129.69Z" style="fill:#ad6359"></path><path d="M393.7,204c-2.34-2,1.38-3.62,1.38-3.62s-5.91,1-7.52-2,3-4.69,3.34-4.82c-.31.05-5.77.84-7.07-2.35s3.53-4.32,3.84-4.39c-.31,0-4.41-.7-4.85-3.35-.75-4.56,11.14-3.68,14-6.08,0,0-.46-6-.53-6.13a6.73,6.73,0,0,0,3,3.25c2.47,1,4.73,1.71,5.62,3.06a3.39,3.39,0,0,1-.08,4s3.27,0,4.38,2.49c.57,1.27-1,3.31-1,3.31a4,4,0,0,1,3.47,2.38c.68,1.81-1,3.58-1,3.58s2.47,1.27,2.57,3.35C413.55,200.94,398.72,208.35,393.7,204Z" style="fill:#ad6359"></path><path d="M410.56,193.73a0,0,0,0,1,.06.07,28.84,28.84,0,0,1-15.73,6.72c-.19,0-.29-.28-.09-.33A58.75,58.75,0,0,0,410.56,193.73Z" style="fill:#263238"></path><path d="M408.37,187.45c.05,0,.11.05.06.1a27,27,0,0,1-17.62,6.27c-.23,0-.42-.25-.16-.25C395,193.42,403.79,190.24,408.37,187.45Z" style="fill:#263238"></path><path d="M387.22,186.69c6.29,0,11.95-2,17.47-4.87.08,0,.12.06.07.11-2.32,2.15-6,3.63-9,4.53a16.59,16.59,0,0,1-8.53.45C387.11,186.88,387.09,186.69,387.22,186.69Z" style="fill:#263238"></path><path d="M411,193.41a4,4,0,0,0,1.39-3.94,3,3,0,0,0-1.28-1.65,5.21,5.21,0,0,0-2.39-.51,3.92,3.92,0,0,0,.58-4.38,3,3,0,0,0-1.77-1.22,9.64,9.64,0,0,0-2.54-.19A3.49,3.49,0,0,0,406,178.6a3.75,3.75,0,0,0-2-2.77,18.51,18.51,0,0,0-3.9-1.4,8.74,8.74,0,0,1-2-.8c-.56-.34-1.35-1-1.43-1.67,0-.14-.22-.05-.15,0,.33.43.53.93.9,1.33a6.5,6.5,0,0,0,1.28,1.06,26.55,26.55,0,0,0,3.68,1.56,5.44,5.44,0,0,1,2.64,2.23,3.21,3.21,0,0,1-.29,3.36s0,.13.08.13a9.18,9.18,0,0,1,2.22.52,3.17,3.17,0,0,1,1.47,1.17,4.11,4.11,0,0,1-.28,4.09,7.18,7.18,0,0,1,2.29.89,3,3,0,0,1,1,1.37,3.54,3.54,0,0,1-.8,3.64.06.06,0,0,0,0,.05h0v0a.08.08,0,0,0,0,0h0s.79.44.83.45,0,0,0-.05A6.7,6.7,0,0,0,411,193.41Z" style="fill:#263238"></path><path d="M412.23,140.47,393,156.57s-13.5-16.19-19.28-24c-5.59-7.55-11.4-18.23,4-12C392.51,126.49,412.23,140.47,412.23,140.47Z" style="fill:#C4A8EF"></path><path d="M407.29,138A166.24,166.24,0,0,0,391,152.31c-.08.07,0,.18.11.11,1.46-1.42,9.46-7.79,16.29-14.29C407.49,138.06,407.37,138,407.29,138Z" style="fill:#263238"></path><path d="M352.79,120.79a25,25,0,0,0,.8,4.31,29,29,0,0,0,1.34,4.14,11.78,11.78,0,0,0,2.15,3.62,3.41,3.41,0,0,0,.75.59,1.62,1.62,0,0,0,.41.17l.12,0,.18,0a8.39,8.39,0,0,0,1.87-.82,33.2,33.2,0,0,0,6.82-5.31,39.09,39.09,0,0,0,2.94-3.23c1-1.11,1.83-2.29,2.69-3.48a34.8,34.8,0,0,1-5.07,7.24,28.27,28.27,0,0,1-6.89,5.65,9.35,9.35,0,0,1-2.16.91,2.1,2.1,0,0,1-.37,0,1.19,1.19,0,0,1-.42-.08,3.2,3.2,0,0,1-.6-.26,4,4,0,0,1-1-.78,11.41,11.41,0,0,1-2.18-4A24.65,24.65,0,0,1,352.79,120.79Z" style="fill:#263238"></path><path d="M374.65,124.61c-.68-5.79-8-6.59-12.42-6.55-5.59.06-10.27,1.27-12,7s-1.82,11.93-1.76,17.79a.86.86,0,0,1-1.71,0c-.06-6.75-.83-19.45,5.17-24s23.22-4.09,24.37,5.72c.13,1.08-1.57,1.12-1.7,0Z" style="fill:#37474f"></path><circle cx="347.74" cy="146.08" r="3.91" transform="translate(188.76 488.12) rotate(-87.86)" style="fill:#a6a6a6"></circle><path d="M345.39,146.14a2.36,2.36,0,1,0,2.3-2.41A2.35,2.35,0,0,0,345.39,146.14Z" style="fill:#ebebeb"></path><path d="M372.2,143.6c-1.23,16.84.16,20.64,1.84,22.24a10.91,10.91,0,0,0,4.34,2.33l.29-1.15-.15.57.15-.57a9.8,9.8,0,0,1-3.81-2c-1.22-1.16-2.69-4.62-1.48-21.3Z" style="fill:#ebebeb"></path><rect x="377.47" y="165.59" width="2.53" height="4.11" rx="1.11" transform="translate(100.43 474.39) rotate(-71.66)" style="fill:#a6a6a6"></rect><path d="M382.75,142c5.45,11.5,7.46,18,6.32,20.39a9.77,9.77,0,0,1-2.8,3.28l.68,1a10.78,10.78,0,0,0,3.2-3.75c1.35-2.86-.48-9.06-6.33-21.39Z" style="fill:#ebebeb"></path><rect x="385.17" y="164.26" width="2.53" height="4.11" rx="1.11" transform="translate(504.35 570.14) rotate(-129.56)" style="fill:#a6a6a6"></rect><path d="M384.13,140.94a68.4,68.4,0,0,0-3.57-7.52,7,7,0,0,0-2.87-2.42c-.24,0-.52-2-.71-3.73-.17-1.49-.33-3.22-.77-3.63a1.18,1.18,0,0,0-1.62.22c-.32.51,0,2.23.21,3.71.25,1.68.52,3.73.29,3.78a7.72,7.72,0,0,0-2,3.1,56.5,56.5,0,0,0-1.3,8.42c-.05,1.79.56,1.9,1.08,2,.74.1,1.1-.45,1.29-2.46.3-3.18.45-8.46,2.55-8.84h0c2.12-.18,4,5,5.2,7.91.77,1.8,1.2,1.9,1.89,1.61C384.29,142.86,384.77,142.55,384.13,140.94Z" style="fill:#a6a6a6"></path><path d="M358.61,130.43c1.15,0,9-5.57,11.51-10.07.17-.31-.26-3.59-.61-7.61-.2-2.43-.36-5.15-.33-7.64,0-.51-1.75.41-1.75.41l-3.23.74-10.68,2.46a39.74,39.74,0,0,1,1.39,9.58,6.5,6.5,0,0,1-.11,1,.86.86,0,0,0,0,.17C354.43,121.43,356.75,130.42,358.61,130.43Z" style="fill:#ad6359"></path><path d="M354.8,119.32a.86.86,0,0,0,0,.17,10,10,0,0,0,1.6.11c10.52-.12,12-13.47,12-13.47l-4.16.13-10.68,2.46a39.74,39.74,0,0,1,1.39,9.58A6.5,6.5,0,0,1,354.8,119.32Z" style="fill:#263238"></path><path d="M369.7,84c2.29,5.32,1.13,21.54-2.4,25.52-5.11,5.76-14.35,7.27-19.46.93-5-6.15-3.08-27.26.94-31C354.7,74,366.33,76.15,369.7,84Z" style="fill:#ad6359"></path><path d="M357.23,95.32s.09.06.08.11c-.11,1.09-.05,2.35.92,2.78,0,0,0,.07,0,.06C357,98,357,96.34,357.23,95.32Z" style="fill:#263238"></path><path d="M358.29,94.25c1.76,0,1.67,3.52,0,3.53S356.81,94.26,358.29,94.25Z" style="fill:#263238"></path><path d="M350.89,95.33s-.09,0-.09.09c0,1.1-.17,2.35-1.17,2.69,0,0,0,.07,0,.06C350.85,98,351.07,96.37,350.89,95.33Z" style="fill:#263238"></path><path d="M349.94,94.16c-1.75-.18-2,3.34-.36,3.51S351.42,94.31,349.94,94.16Z" style="fill:#263238"></path><path d="M359.73,92.67a13.13,13.13,0,0,1-1.36-.52,2.29,2.29,0,0,1-1.28-.79.74.74,0,0,1,.14-.9,1.84,1.84,0,0,1,1.88-.14,2.73,2.73,0,0,1,1.53,1.22A.79.79,0,0,1,359.73,92.67Z" style="fill:#263238"></path><path d="M348.63,92.34c.49-.07.93-.21,1.41-.32a2.39,2.39,0,0,0,1.38-.61.74.74,0,0,0,0-.91,1.83,1.83,0,0,0-1.83-.4,2.68,2.68,0,0,0-1.69,1A.8.8,0,0,0,348.63,92.34Z" style="fill:#263238"></path><path d="M358,105.51c-.27.25-.54.6-.94.62a2.83,2.83,0,0,1-1.17-.31,0,0,0,0,0-.05.06,1.45,1.45,0,0,0,1.37.63,1.15,1.15,0,0,0,.89-.94C358.09,105.5,358,105.48,358,105.51Z" style="fill:#263238"></path><path d="M356.91,102.2a3.76,3.76,0,0,1-2.54,1.6,5,5,0,0,1-1.34,0,1.09,1.09,0,0,1-.26,0l-.23,0a.28.28,0,0,1-.22-.25h0a.43.43,0,0,1,0-.11h0v-.1c0-.84.12-2.12.12-2.12-.31.15-1.9.81-1.87.37a55.84,55.84,0,0,1,1.76-11.24.1.1,0,0,1,.2,0c-.17,3.51-.95,7-1.18,10.49a6.87,6.87,0,0,1,1.78-.48c.12,0-.27,2.47-.24,2.84v0a5.16,5.16,0,0,0,3.9-1.1C356.89,102,357,102.12,356.91,102.2Z" style="fill:#263238"></path><path d="M353.54,103.41a4.42,4.42,0,0,0,1.73,1.42,2.06,2.06,0,0,0,1.21.11c.88-.21.92-1,.78-1.7a4.51,4.51,0,0,0-.36-1.06A5.73,5.73,0,0,1,353.54,103.41Z" style="fill:#263238"></path><path d="M355.27,104.83a2.06,2.06,0,0,0,1.21.11c.88-.21.92-1,.78-1.7A2.06,2.06,0,0,0,355.27,104.83Z" style="fill:#ff99ba"></path><path d="M369,96.26c-3.73-.17-4.17-7-4.17-7s-6.36-1.32-7.09-6.18c0,0-6.24,3.63-11,1.69s-3.48-7.3-2.9-8.43S347,77.49,347,77.49s.43-3,1.26-3.32,1.64,1.61,1.64,1.61a40,40,0,0,1,11.83-1.41c5.58.39,8.11,6.14,8.11,6.14s3,.76,3.84,2.9S371.36,96.37,369,96.26Z" style="fill:#263238"></path><path d="M366.32,89.4c-5,.45-8.13-3-8.65-7.76,0,0-.09,0-.09,0,0,4.42,3.88,9.52,8.78,8A.11.11,0,0,0,366.32,89.4Z" style="fill:#263238"></path><path d="M369.73,80.42c-.06,0-.09.07,0,.09,1.36.71,2.93,1.25,3.85,2.56,1.11,1.57.77,3.57.26,5.28C373,91,371.48,94.44,369,95.92a.13.13,0,0,0,.13.22c3-1.58,4.82-6,5.36-9.19C375.09,83.43,373,81.32,369.73,80.42Z" style="fill:#263238"></path><path d="M352.24,84.27a7.3,7.3,0,0,1-7.55-.45c-2.53-1.93-1.85-4.91-.61-7.36.06-.12-.12-.26-.2-.15-1.64,2.14-1.91,5.48.15,7.46s5.94,2.15,8.41.8C352.65,84.46,352.45,84.15,352.24,84.27Z" style="fill:#263238"></path><path d="M367.73,97.34s3.14-5.47,5.59-4.4.41,8.79-2.24,10.06a2.8,2.8,0,0,1-3.87-1.17Z" style="fill:#ad6359"></path><path d="M372.68,95.14c.05,0,.06,0,0,.07-1.85,1-2.71,2.83-3.25,4.74a1.55,1.55,0,0,1,2.27-.62s0,.11,0,.1a1.74,1.74,0,0,0-1.84.77,8.51,8.51,0,0,0-.77,1.61c-.07.18-.39.12-.34-.09v0C368.47,99.23,370.07,95.62,372.68,95.14Z" style="fill:#263238"></path><rect x="324.99" y="147.66" width="40.32" height="52.48" transform="translate(-32.28 90.73) rotate(-14.31)" style="fill:#455a64"></rect><rect x="328.99" y="145.82" width="19.11" height="5.79" transform="translate(703.41 208.69) rotate(165.62)" style="fill:#ebebeb"></rect><polygon points="332.77 147.21 335.05 146.62 334.39 144.03 339.93 142.61 340.59 145.2 342.87 144.62 341.66 139.9 331.53 142.5 332.77 147.21" style="fill:#ebebeb"></polygon><path d="M346.72,165.54a4.16,4.16,0,0,1,.78,4.69,6.22,6.22,0,0,1,3.59,2.2c1.49,2.06-1.09,5.31-1.09,5.31a7.6,7.6,0,0,1,3.41,2.92c1.23,2.11-.9,5.76-.9,5.76a6.7,6.7,0,0,1,1.38,4.46c-.41,4.27-6.28,7.19-10,9.09s-16,3.81-18.32,4.41L313.2,180.67s14.21-13.24,18.89-14.85C336,164.46,344.36,163.3,346.72,165.54Z" style="fill:#ad6359"></path><path d="M347.14,169.94c-4.54.44-8.7,2.19-12.95,3.71-.09,0,0,.18.06.14,4.21-1.55,8.67-2.25,12.94-3.64A.11.11,0,0,0,347.14,169.94Z" style="fill:#263238"></path><path d="M349.76,177.47a11.82,11.82,0,0,0-2.94,1q-1.53.65-3,1.32-3,1.36-6,2.88c-.08,0,0,.19.06.15q3-1.37,6.06-2.6c1-.41,2-.81,3.07-1.2a14.76,14.76,0,0,0,2.85-1.25A.16.16,0,0,0,349.76,177.47Z" style="fill:#263238"></path><path d="M352.42,186.46a7.86,7.86,0,0,0-2.6,1l-2.73,1.28c-1.82.85-3.64,1.7-5.49,2.48a.08.08,0,0,0,0,.15c1.88-.79,3.78-1.55,5.65-2.35l2.76-1.2a7.91,7.91,0,0,0,2.41-1.3S352.46,186.45,352.42,186.46Z" style="fill:#263238"></path><path d="M324.11,171a15.25,15.25,0,0,0-2.56,1.75c-.83.63-1.64,1.28-2.44,1.93-1.59,1.28-3.17,2.59-4.66,4s-2.94,2.83-4.35,4.29l-1,1-.43.28c-.61.4-1.2.81-1.76,1.26a32,32,0,0,0-3.08,2.85.08.08,0,0,0,.11.11,28.13,28.13,0,0,1,3.29-2.66l.45-.31c-.55.61-1.09,1.24-1.59,1.89a52.4,52.4,0,0,0-3.72,5.41c-.05.09.08.16.14.08,2.07-3.33,5-6.08,7.86-8.76s5.72-5.67,8.66-8.42c.84-.79,1.7-1.56,2.58-2.3a32.92,32.92,0,0,0,2.62-2.24C324.32,171.06,324.21,171,324.11,171Z" style="fill:#263238"></path></g><g id="freepik--character-1--inject-47"><path d="M126.6,370.2s0,43.06,0,43.09c0,8.24.06,15.46.47,19.19a.13.13,0,0,0,0,.06,5.8,5.8,0,0,0,.59,2.55s0,0,0,.05c2.44,1.67,68.25,3.92,70.57,3.23s.52-7.37-2-9.49S169,414.62,169,414.62l-.42-43Z" style="fill:#dd6a57"></path><path d="M126.6,404.45s0,8.81,0,8.84c0,8.24.06,15.46.47,19.19a.13.13,0,0,0,0,.06,11.3,11.3,0,0,0,.59,2.55s0,0,0,.05c2.44,1.67,68.25,3.92,70.57,3.23s.52-7.37-2-9.49S169,414.62,169,414.62l.12-9Z" style="fill:#455a64"></path><path d="M198.3,438.37c-2.33.7-68.12-1.56-70.57-3.23-.94-.63-1.18-10.23-1.12-21.85v-.36l42.47,1,0,.72s24.8,12.12,27.3,14.25S200.62,437.68,198.3,438.37Z" style="fill:#c7c7c7"></path><path d="M197.64,435.79c-11.08-.65-55.84-2.23-66.85-2-.09,0-.09.06,0,.07,11,.88,55.74,2.1,66.84,2.15C197.87,436,197.87,435.81,197.64,435.79Z" style="fill:#263238"></path><path d="M172.6,414.88c-4.34-1-9.7-.48-13.14,2.52-.13.11,0,.3.18.26a61.43,61.43,0,0,1,12.92-2.23A.28.28,0,0,0,172.6,414.88Z" style="fill:#263238"></path><path d="M175.69,416.88c-4.34-1-9.7-.47-13.14,2.52-.14.12,0,.31.17.27a61.64,61.64,0,0,1,12.93-2.24A.28.28,0,0,0,175.69,416.88Z" style="fill:#263238"></path><path d="M178.77,418.89c-4.33-1-9.7-.48-13.14,2.52-.13.12,0,.3.18.26a61.41,61.41,0,0,1,12.93-2.23A.28.28,0,0,0,178.77,418.89Z" style="fill:#263238"></path><polygon points="171.5 414.19 125.44 415.11 126.44 329.69 126.48 326.66 126.58 318.17 127.83 210.53 128.14 184.35 167.03 184.35 167.49 207.96 169.59 315.99 171.5 414.19" style="fill:#C4A8EF"></polygon><path d="M169.57,406.5c-7.19-.06-5.13-.14-12.32-.12-3.52,0-26.65.08-29.93.67a.07.07,0,0,0,0,.14c3.29.51,26.41,0,29.93-.05,7.19-.16,5.12-.19,12.31-.43A.11.11,0,0,0,169.57,406.5Z" style="fill:#263238"></path><path d="M156.07,192.49c-.48,27.31-.42,54.64-.39,82s.09,54.5.23,81.75c.07,15.37,0,30.75.34,46.11,0,.64,1,.58,1-.06.09-13.69-.06-27.39-.11-41.09s-.06-27.39-.1-41.09q-.1-40.87-.26-81.74c-.08-15.29-.13-30.57-.43-45.86C156.34,192.29,156.07,192.31,156.07,192.49Z" style="fill:#263238"></path><polygon points="161.98 184.35 126.44 329.69 128.14 184.35 161.98 184.35" style="fill:#263238"></polygon><path d="M117.43,371.49s-5.51,41-5.51,41.07c-.06,8.24-.25,15.46-.7,19.18a.13.13,0,0,1,0,.06,5.64,5.64,0,0,1-.62,2.54s0,.05,0,.06c-2.46,1.64-68.28,3.14-70.6,2.42s-.44-7.38,2.07-9.47,27.46-13.94,27.46-13.94l6.91-43Z" style="fill:#dd6a57"></path><path d="M112.63,403.75c-.42,5.14-.71,8.78-.71,8.81-.06,8.24-.25,15.46-.7,19.18a.13.13,0,0,1,0,.06,10.87,10.87,0,0,1-.62,2.54s0,.05,0,.06c-2.46,1.64-68.28,3.14-70.6,2.42s-.44-7.38,2.07-9.47,27.46-13.94,27.46-13.94l.83-9.08Z" style="fill:#455a64"></path><path d="M39.94,436.82c2.32.72,68.14-.78,70.61-2.43.94-.61,1.29-10.21,1.36-21.82v-.37l-42.47.49,0,.72S44.53,425.25,42,427.35,37.62,436.1,39.94,436.82Z" style="fill:#c7c7c7"></path><path d="M40.63,434.25c11.09-.53,55.86-1.6,66.86-1.27.09,0,.09.06,0,.07-11,.76-55.77,1.46-66.87,1.38C40.4,434.43,40.39,434.26,40.63,434.25Z" style="fill:#263238"></path><path d="M64.72,412.92c4.34-.91,9.7-.37,13.1,2.67.14.12,0,.3-.17.26a61.48,61.48,0,0,0-12.9-2.38A.28.28,0,0,1,64.72,412.92Z" style="fill:#263238"></path><path d="M61.61,414.89c4.34-.91,9.7-.36,13.11,2.67.13.12,0,.3-.18.26a61.36,61.36,0,0,0-12.9-2.38A.28.28,0,0,1,61.61,414.89Z" style="fill:#263238"></path><path d="M58.5,416.86c4.35-.91,9.7-.36,13.11,2.67.13.12,0,.3-.18.26a61.36,61.36,0,0,0-12.9-2.38A.28.28,0,0,1,58.5,416.86Z" style="fill:#263238"></path><path d="M163.08,184.31v0c-.17.8-2.89,13.42-5.71,24.26-2.05,7.92-4.16,14.88-5.37,15.6-1.37.81-8.05,3.77-10.29,4.7l-13.89,89.2-1.33,8.55-13.7,87.94-46-2.4,17.35-91.88L104.61,212l5.24-27.73Z" style="fill:#C4A8EF"></path><path d="M112.55,406.2c-7.18-.46-5.11-.43-12.29-.82-3.52-.19-26.61-1.41-29.92-1-.07,0-.08.14,0,.15,3.26.69,26.37,1.51,29.89,1.64,7.19.24,5.13.09,12.32.26C112.67,406.42,112.68,406.21,112.55,406.2Z" style="fill:#263238"></path><path d="M121.17,193.4c-2.39,13.46-5.08,26.88-7.56,40.33s-5,26.9-7.5,40.35Q98.64,314.24,91,354.35c-2.87,15.06-5.8,30.1-8.57,45.18-.08.42.56.59.65.16C88.6,372.9,93.63,346,98.71,319.11s10-53.54,14.77-80.35c2.7-15.09,5.14-30.23,7.84-45.32C121.34,193.34,121.19,193.3,121.17,193.4Z" style="fill:#263238"></path><path d="M155.54,222.44a87.41,87.41,0,0,0-13.77,6.41.16.16,0,0,0,.13.29c4.64-2,9.37-3.9,13.89-6.15A.3.3,0,0,0,155.54,222.44Z" style="fill:#263238"></path><path d="M156.94,190.67c0-.16-.3-.2-.29,0,0,5.51-.32,10.36-.78,15.5-.22,2.39-2.14,15.6-6.28,14.63-.7-.16-1.05-.84-1.16-1.89a16.66,16.66,0,0,1,.55-4c.46-2.76.83-5.53,1.07-8.33a76.21,76.21,0,0,0-.17-15.62.14.14,0,0,0-.27,0,142.55,142.55,0,0,1-1.26,21.56c-.52,3.44-2.25,8.61,1.34,9.14s6-8.13,6.48-10.49A79.51,79.51,0,0,0,156.94,190.67Z" style="fill:#263238"></path><path d="M149.7,221.13a20.55,20.55,0,0,0-.93,2.74,6.24,6.24,0,0,0-.39,2.25c0,.14.21.16.29.06a8.1,8.1,0,0,0,1-2.19c.31-.85.65-1.69.94-2.54A.46.46,0,0,0,149.7,221.13Z" style="fill:#263238"></path><path d="M169.59,316l-41.78,2.12-1.23.06-42.41,2.15L104.61,212l5.24-27.73h53.23v0h4l.46,23.61Z" style="fill:#263238"></path><path d="M175.9,310.25c-.63.71-93,0-93.16-.15s.85-6.13,2.64-15.74c6.92-37.19,25.55-129.06,33.88-152,3.64-10.07,8.79-18,14.79-22.55a8,8,0,0,1,1.61-.92c4.37-1.93,12.84-2.54,15.31.39,1.94,2.29,7.64,19.68,10.91,33.46C176.78,215.42,176.66,309.4,175.9,310.25Z" style="fill:#C4A8EF"></path><path d="M135.66,118.86c-1.37,5.15-39.74,138.78-50.28,175.5,6.92-37.19,25.55-129.06,33.88-152,3.64-10.07,8.79-18,14.79-22.55A8,8,0,0,1,135.66,118.86Z" style="fill:#263238"></path><path d="M152.59,123.18c1.58,5,7.63,22.39,10.74,34.82,2.08,8.35,2.66,15.28,3.11,17.12,0,0-19.1-7.42-23.49-7.69-6.75-.42-18.43,13-15.88,15,4,3,23.3,17,39.25,19.87,13.11,2.37,26.29-5.55,25.6-17.95s-22.33-47-30.21-56.71C157.62,122.58,150.66,117.13,152.59,123.18Z" style="fill:#dd6a57"></path><path d="M192.64,187.07c-3,14.3-15.12,16.29-21.55,16.3-11.09,0-32.67-8-37.86-11.86s-4.36-7.76-4.36-7.76l12.82-18a17.68,17.68,0,0,1,6.78.45c2.83,1,17.4,8.62,18,8.87h0c-.16-.67-4.47-21.89-6.54-29-.11-.39-.24-.79-.36-1.21-.6-2-1.43-4.55-2.35-7.35v0c-.51-1.55-1-3.17-1.58-4.77h0c-2.32-6.93-4.59-13.53-4.59-13.53,3.76.85,7.39,3.07,13.16,9.9S195.64,172.77,192.64,187.07Z" style="fill:#C4A8EF"></path><path d="M170.29,203.46c-.76-.19-1.55-.27-2.31-.46s-1.68-.41-2.52-.59c-1.55-.34-3.08-.7-4.61-1.11-3.17-.85-6.31-1.82-9.44-2.82s-6.24-2-9.34-3a34.41,34.41,0,0,1-8.38-3.85,11.88,11.88,0,0,1-3.45-3.36,6.6,6.6,0,0,1-1.16-5.13c0-.1-.14-.14-.16,0a8.78,8.78,0,0,0,.16,4.2,9.69,9.69,0,0,0,2.28,3.59,21.83,21.83,0,0,0,7.91,4.79c3.16,1.25,6.43,2.22,9.66,3.25s6.66,2.16,10,3.09c1.82.5,3.67.95,5.54,1.28a24.32,24.32,0,0,0,2.7.36,25.83,25.83,0,0,0,3,.1A.14.14,0,0,0,170.29,203.46Z" style="fill:#263238"></path><path d="M178.4,180.64q-4.23-2.14-8.5-4.23c.64.1,1.29.19,1.93.31a16.52,16.52,0,0,1,3.51,1,.08.08,0,0,0,.07-.14c-2-.89-4.32-1.86-6.6-1.7l-5.07-2.49c-2.42-1.19-4.82-2.39-7.22-3.61a61.05,61.05,0,0,0-6.81-3.18,14.65,14.65,0,0,0-8-.77c-.08,0-.06.16,0,.15,5.1-.42,9.72,2.25,14.13,4.46,4.69,2.37,9.4,4.72,14.21,6.84,2.73,1.2,5.48,2.39,8.25,3.49C178.42,180.8,178.49,180.68,178.4,180.64Z" style="fill:#263238"></path><path d="M142.37,191.57a51.83,51.83,0,0,1-7-4.49,19,19,0,0,1-2.5-2.49,15.18,15.18,0,0,1-1.15-1.61c-.14-.23-.29-.47-.42-.71,0-.06-.59-1.26-.41-1.25s.1-.14,0-.15c-.67-.08.38,2,.51,2.3a12.49,12.49,0,0,0,2.6,3.44,28,28,0,0,0,8.27,5S142.41,191.59,142.37,191.57Z" style="fill:#263238"></path><path d="M151.05,173.61a29.79,29.79,0,0,0-5.81-3.54,12.63,12.63,0,0,0-3.14-.76,17.38,17.38,0,0,0-3.46.17c-.1,0-.1.17,0,.16a13.26,13.26,0,0,1,3.5.24,18.07,18.07,0,0,1,3.07.74,15.12,15.12,0,0,1,3,1.41,14.59,14.59,0,0,0,2.82,1.66S151.09,173.63,151.05,173.61Z" style="fill:#263238"></path><path d="M146,169.16c-2-.72-4.14-1.61-6.28-.79a.08.08,0,0,0,.05.15c2.06-.71,4.23.21,6.22.72C146.07,169.25,146.09,169.18,146,169.16Z" style="fill:#263238"></path><path d="M143.13,182.26a11.56,11.56,0,0,0-.69-1,6.31,6.31,0,0,0-1-.92s0,0,0,0a4.42,4.42,0,0,1,1.47,1.89c-.94.14-1.72-.61-2.4-1.16s-1.39-1.16-2.06-1.76a44.65,44.65,0,0,1-3.82-3.84.08.08,0,0,0-.12.09,28.91,28.91,0,0,0,4,4.54,18.19,18.19,0,0,0,2.28,1.82,2.39,2.39,0,0,0,2.32.49A.11.11,0,0,0,143.13,182.26Z" style="fill:#263238"></path><path d="M144.29,175.57a13.48,13.48,0,0,0-7.41-3.27.08.08,0,0,0,0,.16,21.07,21.07,0,0,1,7.39,3.19C144.28,175.69,144.34,175.61,144.29,175.57Z" style="fill:#263238"></path><path d="M173.11,178.07l-6.67-2.95h0c-.16-.67-4.47-21.89-6.54-29-.11-.39-.24-.79-.36-1.21-.6-2-1.43-4.55-2.35-7.35Z" style="fill:#263238"></path><path d="M166.77,175.26c-1.73-.08-5.84-1.1-7.44.24-9.79,8.18-12.61,6.24-14.65,7.26-15.79,7.87-37.48,21-44.76,20.6-11-.57-18.43-10.37-16.07-19,4.66-17.08,34.24-53.13,45.33-61.46,5.88-4.41,5,2.72,2.23,10.36-1.63,4.48-4.41,11.12-7.23,17.63-2.5,5.8-9.09,20.61-9.21,21h0l0,0s0,.05.12,0c.49-.06,13.91-5.43,27.24-8,4.69-.91,10.93-1.17,14.38.39C165.24,168.17,166.77,175.26,166.77,175.26Z" style="fill:#ebebeb"></path><path d="M132.38,165.94a12.76,12.76,0,0,1,3.56-.62l9.26,17.25a6.83,6.83,0,0,1-2.23,4.64c-2.1,1.67-34.13,16.21-41.94,16.55s-18.67-6.37-18.23-16.13c.61-13.72,28.1-48,40.1-60,5.51-5.52,11.77-9.4,13.24-8.35,1.74,1.24-2,8.38-4,13.74-3.8,9.91-15.24,38.16-15.24,38.16S129.44,166.74,132.38,165.94Z" style="fill:#C4A8EF"></path><path d="M140.73,164.21a187.32,187.32,0,0,0-19.49,5.54l-.28.09c-3.33,1.15-5.4,2-5.89,2.08l-.1-.07h0a4.37,4.37,0,0,0-1-.6c-.91-.37-9.74-1.85-9.4-4.59s3.94-2.39,4.47-2.33c-.57-.15-5.34-1.48-3.67-3.82,1.18-1.66,5.94-1.21,6.42-1.17-.48-.18-4.85-1.81-3.22-4.2,1.16-1.71,6.48-1.26,7.09-1.13-.49-.21-4.41-1-2.48-3.08,1.34-1.42,11.3.5,15.67,2.91C135.35,157.42,140.73,164.21,140.73,164.21Z" style="fill:#ebebeb"></path><path d="M121.24,169.75l-.28.09a32.1,32.1,0,0,0-11.74-5.37c-.28-.05-.29-.21,0-.18A22,22,0,0,1,121.24,169.75Z" style="fill:#263238"></path><path d="M112,159.52c6.26,1.52,9.06,3,14.34,6.71.08.05.17-.06.1-.12-4.91-4-8-6-14.38-6.75C111.78,159.33,111.72,159.45,112,159.52Z" style="fill:#263238"></path><path d="M115.85,154.14c6,1.86,9.13,3.39,13.85,7.55.11.09.26,0,.16-.15-4.42-4.65-8.32-6.59-13.94-7.57C115.54,153.91,115.48,154,115.85,154.14Z" style="fill:#263238"></path><path d="M146.73,124.87c-1.06.43-8.64.76-11.64-3.45-.21-.29-.12-3.6-.21-7.62-.06-2.45-.19-5.17-.49-7.64-.06-.51,1.78.22,1.78.22l3.29.39,10.89,1.31a39.28,39.28,0,0,0-.36,9.67,5,5,0,0,0,.22,1s0,.1,0,.17C150.8,120.81,148.85,124,146.73,124.87Z" style="fill:#dd6a57"></path><path d="M150.21,118.75s0,.1,0,.17a11.42,11.42,0,0,1-1.59.27c-10.47,1-13.36-12.11-13.36-12.11l4.15-.31,10.89,1.31a39.28,39.28,0,0,0-.36,9.67A5,5,0,0,0,150.21,118.75Z" style="fill:#263238"></path><path d="M129.63,84.27c-1.7,5.53,1.19,21.53,5.12,25.11,5.7,5.18,15,5.69,19.45-1.16,4.27-6.64.14-27.43-4.25-30.68C143.48,72.75,132.14,76.09,129.63,84.27Z" style="fill:#dd6a57"></path><path d="M143.24,94.18s-.08.06-.07.11c.22,1.07.3,2.34-.61,2.87,0,0,0,.07,0,.06C143.74,96.84,143.62,95.16,143.24,94.18Z" style="fill:#263238"></path><path d="M142.07,93.22c-1.75.17-1.28,3.68.35,3.52S143.55,93.08,142.07,93.22Z" style="fill:#263238"></path><path d="M149.54,93.5s.1,0,.1.09c.11,1.09.43,2.32,1.46,2.55,0,0,0,.06,0,.06C149.87,96.19,149.48,94.55,149.54,93.5Z" style="fill:#263238"></path><path d="M150.36,92.24c1.73-.37,2.34,3.11.74,3.45S148.91,92.55,150.36,92.24Z" style="fill:#263238"></path><path d="M140.48,91.81c.46-.19.85-.44,1.29-.67a2.32,2.32,0,0,0,1.19-.92.76.76,0,0,0-.24-.88,1.84,1.84,0,0,0-1.88.06,2.7,2.7,0,0,0-1.4,1.38A.8.8,0,0,0,140.48,91.81Z" style="fill:#263238"></path><path d="M151.47,90.29a14.12,14.12,0,0,1-1.44-.17,2.27,2.27,0,0,1-1.43-.46.74.74,0,0,1-.08-.91,1.85,1.85,0,0,1,1.78-.59,2.71,2.71,0,0,1,1.79.81A.8.8,0,0,1,151.47,90.29Z" style="fill:#263238"></path><path d="M143.6,104.39c.29.22.6.53,1,.51a2.94,2.94,0,0,0,1.13-.43,0,0,0,0,1,.05,0,1.48,1.48,0,0,1-1.3.78,1.16,1.16,0,0,1-1-.85C143.48,104.39,143.56,104.36,143.6,104.39Z" style="fill:#263238"></path><path d="M144.3,101a3.7,3.7,0,0,0,2.69,1.31,4.35,4.35,0,0,0,1.34-.12,1.14,1.14,0,0,0,.25-.06l.23-.07a.26.26,0,0,0,.18-.27h0a.43.43,0,0,0,0-.11h0l0-.09c-.09-.84-.34-2.1-.34-2.1.32.11,2,.6,1.89.17a55.62,55.62,0,0,0-2.95-11,.1.1,0,0,0-.19.05c.54,3.47,1.69,6.83,2.29,10.31a6.91,6.91,0,0,0-1.82-.3c-.11.06.53,2.43.55,2.81a.1.1,0,0,1,0,0,5.15,5.15,0,0,1-4-.67C144.3,100.82,144.22,100.91,144.3,101Z" style="fill:#263238"></path><path d="M147.78,101.82a4.46,4.46,0,0,1-1.58,1.6,2,2,0,0,1-1.18.23c-.9-.11-1-.9-1-1.6a4.83,4.83,0,0,1,.24-1.1A5.73,5.73,0,0,0,147.78,101.82Z" style="fill:#263238"></path><path d="M146.2,103.42a2,2,0,0,1-1.18.23c-.9-.11-1-.9-1-1.6A2,2,0,0,1,146.2,103.42Z" style="fill:#ff99ba"></path><path d="M130.34,98.82c3.19-.52,4.52-5.33,4.57-8.85.05-2.61-.94-7.83,1.61-9.61s5.49.1,8.6-.48c1.32-.25,2.38-2.22,3.79-2.41s3.52,3.74,3.52,3.74-.56-5.71-7.79-6.15-13.92,3-15.51,8.81C127.07,91.32,130.34,98.82,130.34,98.82Z" style="fill:#263238"></path><path d="M130.93,95s3.46-7.34,6.32-9.89c1.82-1.62,8.28-3.38,10.53-3.65,1.57-.2,4.65-.23,4.65-.23a12.89,12.89,0,0,0,1-1.39,5.05,5.05,0,0,0,.24-4.8c-1.28-2.61-4.94-2.56-6.76-3.61s-6.93-3-9.93-2c-4.43,1.5-6.75,4.68-7.81,5.38-3.69,2.43-6.83,5.07-7.57,8.89-.85,4.46.47,7.47.32,9.24-.29,3.27,1.13,6.5,3.56,7.64a9.53,9.53,0,0,0,4.13,1Z" style="fill:#C4A8EF"></path><path d="M152.48,80.28a10.45,10.45,0,0,0-1.38-.51,2.63,2.63,0,0,0,.91-1.53,11.44,11.44,0,0,0,0-2.68c0-.1-.17-.1-.16,0a6.33,6.33,0,0,1-.17,2.45,4.53,4.53,0,0,1-.87,1.67,8.6,8.6,0,0,0-1.13-.19l.15-.27a3.27,3.27,0,0,0,.26-.65,3.07,3.07,0,0,0,.08-1.38c0-.1-.17,0-.15,0a2.85,2.85,0,0,1-.06,1.3,3.16,3.16,0,0,1-.25.6,2.33,2.33,0,0,1-.17.26l-.06.08a2.58,2.58,0,0,0-.29,0,23.3,23.3,0,0,0-3.83.2l-1,.14a2.82,2.82,0,0,0,.23-.46,4,4,0,0,0,0-1.91,0,0,0,0,0,0,0,3.51,3.51,0,0,1-.17,1.9,1.24,1.24,0,0,1-.51.53l-.75.13A2,2,0,0,1,142,79a3.74,3.74,0,0,1-.6-1.74.08.08,0,0,0-.16,0,5.23,5.23,0,0,0,.37,1.56,3.14,3.14,0,0,0,.79,1.28,17.84,17.84,0,0,0-3.5,1.12,10.63,10.63,0,0,0-2.34,1.46,5.83,5.83,0,0,1-1.37-.33,3,3,0,0,1-1.33-1c0-.09-.19,0-.13.08a3.64,3.64,0,0,0,2.5,1.54A14.16,14.16,0,0,0,134.27,85,1.05,1.05,0,0,0,134,85a3.11,3.11,0,0,1-.61-.2,4,4,0,0,1-1.11-.71,7.13,7.13,0,0,1-1.5-2.36c0-.08-.18,0-.15.07a10.63,10.63,0,0,0,1.47,2.61,3.06,3.06,0,0,0,1.12.87,2.73,2.73,0,0,0,.69.2h0l-.15.19c-.12.16-.23.33-.35.5a1.73,1.73,0,0,1-1.12.15,2.87,2.87,0,0,1-1.65-1.37c-.06-.09-.19,0-.12.1.49.6,1,1.4,1.79,1.6a1.79,1.79,0,0,0,.73,0,36.68,36.68,0,0,0-2.61,4.16l-.14-.22a3.78,3.78,0,0,0-.55-.64,3.94,3.94,0,0,0-.65-.51c-.24-.15-.48-.31-.72-.44-.09,0-.16.08-.08.14a4,4,0,0,1,.65.5c.19.19.36.39.53.59a7.16,7.16,0,0,1,.48.61c.08.11.15.23.23.33l.05.07c-.16.31-.32.61-.46.93s-.22.55-.32.83h-.31l-.67,0a7.63,7.63,0,0,1-1.33-.26,8.88,8.88,0,0,1-1.25-.46,3.14,3.14,0,0,1-1.13-.91c-.06-.08-.2,0-.13.08a5.64,5.64,0,0,0,2.24,1.87,4.14,4.14,0,0,0,1.47.29,3.88,3.88,0,0,0,.93-.1,17.38,17.38,0,0,0-.71,2.66,20.79,20.79,0,0,0-.09,4.32c0,.1.17.09.16,0a10.78,10.78,0,0,1,.39-3.74,18.72,18.72,0,0,1,1.16-3.43,38.69,38.69,0,0,1,3.53-6.15,14.52,14.52,0,0,1,4.64-4.84,17.52,17.52,0,0,1,6.17-1.9c2.52-.37,5.37-.69,7.86,0C152.51,80.47,152.57,80.32,152.48,80.28Z" style="fill:#263238"></path><path d="M133,97.31s-3.71-5.11-6-3.78.53,8.79,3.3,9.76a2.8,2.8,0,0,0,3.73-1.57Z" style="fill:#dd6a57"></path><path d="M127.86,95.65a0,0,0,0,0,0,.07c1.95.75,3,2.52,3.75,4.37a1.55,1.55,0,0,0-2.33-.38s0,.11.06.1a1.71,1.71,0,0,1,1.9.57,7.87,7.87,0,0,1,.94,1.52c.09.17.4.07.34-.13l0,0C132.48,99.26,130.51,95.85,127.86,95.65Z" style="fill:#263238"></path><path d="M136.68,109.52a16.27,16.27,0,0,1-7.12-5.09,14,14,0,0,1-2.82-5.87,10.85,10.85,0,0,0,1.13,2.42,7.62,7.62,0,0,0,1.83,2s0,0,0,0a15.18,15.18,0,0,0,7.07,6C137.05,109.16,137,109.62,136.68,109.52Z" style="fill:#ebebeb"></path><path d="M133.56,99.13c-.5-.57-2.1-3.52-3.46-4.59h0a8.08,8.08,0,0,0-.65-.54,3.07,3.07,0,0,0-1.24-.59,1.92,1.92,0,0,1,1.14-.15c2,.28,3.59,4.24,4.4,5.73C133.79,99.09,133.64,99.23,133.56,99.13Z" style="fill:#ebebeb"></path><path d="M133.21,98.65c-.34-.76,5.25,5.9,13.57,5.91a10.8,10.8,0,0,0,9.35-5.1c.48-.7.31,6.79-1.71,10.1a10.28,10.28,0,0,1-6.45,3.91,15.74,15.74,0,0,1-15-5.82C132.05,106.5,136.09,105,133.21,98.65Z" style="fill:#ebebeb"></path><path d="M135.31,102a44,44,0,0,0,4.89,2.37,21.36,21.36,0,0,0,5.16,1.46,11.19,11.19,0,0,0,5.25-.6,11.45,11.45,0,0,0,4.49-2.9,10.21,10.21,0,0,1-4.35,3.26,11.13,11.13,0,0,1-5.45.74,19.85,19.85,0,0,1-5.25-1.61A27.84,27.84,0,0,1,135.31,102Z" style="fill:#fff"></path><path d="M135.31,103.89a44,44,0,0,0,4.89,2.37,21.38,21.38,0,0,0,5.16,1.47,11.33,11.33,0,0,0,5.25-.61,11.45,11.45,0,0,0,4.49-2.9,10.21,10.21,0,0,1-4.35,3.26,11.13,11.13,0,0,1-5.45.74,19.85,19.85,0,0,1-5.25-1.61A27.84,27.84,0,0,1,135.31,103.89Z" style="fill:#fff"></path><path d="M135.31,105.8a26.33,26.33,0,0,0,4.78,2.59,16.87,16.87,0,0,0,5.2,1.32,12.43,12.43,0,0,0,5.27-.7,12.08,12.08,0,0,0,4.54-2.88,10.61,10.61,0,0,1-4.4,3.24,12.2,12.2,0,0,1-5.45.84,16.21,16.21,0,0,1-5.31-1.47A19.64,19.64,0,0,1,135.31,105.8Z" style="fill:#fff"></path><path d="M134.73,107.41a23.25,23.25,0,0,0,4.82,2.85,16.77,16.77,0,0,0,5.37,1.39,13.34,13.34,0,0,0,5.46-.7A12.41,12.41,0,0,0,155.1,108a10.88,10.88,0,0,1-4.59,3.28,13.16,13.16,0,0,1-5.63.83,15.81,15.81,0,0,1-5.48-1.55A18.32,18.32,0,0,1,134.73,107.41Z" style="fill:#fff"></path><path d="M145.36,182.47a.11.11,0,0,0-.21,0c-.05,3.12-2.76,5-5.28,6.28-2.72,1.38-5.5,2.65-8.28,3.91-5.77,2.62-11.63,5-17.53,7.28-1.63.64-3.27,1.26-4.91,1.88s-3.42,1.37-5.17,1.86c-.1,0,0,.18,0,.15,1.57-.58,3.2-1,4.79-1.48s3.18-1,4.76-1.55c3.09-1.05,6.13-2.22,9.16-3.43s6.18-2.53,9.23-3.88c2.89-1.29,5.8-2.57,8.59-4.05C143.1,188.09,145.84,185.69,145.36,182.47Z" style="fill:#263238"></path><path d="M143,178.77a6.61,6.61,0,0,1-.79,2.07,13.67,13.67,0,0,1-.77,1.34,15.28,15.28,0,0,1-2.21,2.61,35.13,35.13,0,0,1-5.49,4s0,0,0,0a34.62,34.62,0,0,0,5.86-4,12.89,12.89,0,0,0,2.23-2.6,9.82,9.82,0,0,0,.79-1.55c.25-.62.29-1.28.52-1.9C143.16,178.69,143,178.65,143,178.77Z" style="fill:#263238"></path><path d="M141.19,175.16c-1.7.74-3.33,1.69-5,2.53s-3.44,1.71-5.17,2.54c0,0,0,.05,0,0q2.55-1.12,5.07-2.34a54,54,0,0,0,5.14-2.63C141.33,175.25,141.28,175.12,141.19,175.16Z" style="fill:#263238"></path><path d="M141.56,176.19a10.79,10.79,0,0,1-2.28,1.86c-.88.62-1.76,1.25-2.66,1.86-.08.06,0,.19.08.13.92-.66,1.85-1.31,2.78-1.95a7.53,7.53,0,0,0,2.16-1.85S141.6,176.15,141.56,176.19Z" style="fill:#263238"></path><path d="M138.29,170.15a10.08,10.08,0,0,0-3-.45,9.93,9.93,0,0,0-2.88.64c-2.1.7-4.18,1.44-6.29,2.1a.08.08,0,0,0,.05.15c2-.66,4-1.24,6-1.85a13.12,13.12,0,0,1,3-.7,22.7,22.7,0,0,1,3.09.22C138.35,170.27,138.35,170.17,138.29,170.15Z" style="fill:#263238"></path><path d="M136,165.41c-1.35-.29-2.26.19-3.57.53s-2.85.77-4.26,1.18c-2.77.81-5.52,1.66-8.24,2.6q-5.16,1.78-10.13,4a24.84,24.84,0,0,0-2.52.71q-1.55.48-3.06,1.08c-2,.77-3.83,1.72-5.71,2.65-.09,0,0,.18.08.13a47.51,47.51,0,0,1,5.83-2.49c.95-.35,1.9-.67,2.86-1l.29-.08c-1.16.54-2.31,1.1-3.44,1.68a81.78,81.78,0,0,0-8.4,4.9s0,.08,0,.06A109.72,109.72,0,0,1,111,173.81c5.24-2.1,10.55-4,15.93-5.68,1.51-.48,3-.93,4.55-1.41s2.82-1.34,4.5-1.16C136,165.57,136,165.42,136,165.41Z" style="fill:#263238"></path><path d="M152.42,120.94a0,0,0,0,0-.08,0,5.52,5.52,0,0,1-2.44,5.56,9.43,9.43,0,0,1-6.22,1.39,19.15,19.15,0,0,1-6.46-1.88c-1.83-.92-3.94-2.52-4.16-4.71,0-.1-.17-.1-.15,0a7.35,7.35,0,0,0,2.17,4.45,12.46,12.46,0,0,0,5.26,2.57c3.66,1,8.44,1.08,11-2.23A5.72,5.72,0,0,0,152.42,120.94Z" style="fill:#263238"></path></g><g id="freepik--character-2--inject-47"><path d="M222.74,236.21c-.79,3.72,1.24,9.27-1.58,9.52-2.51.22-3.54-3.76-3.54-3.76s-.29,4.86-3.05,4.33-3-5.12-3-5.12-.06,4.06-2.78,3.33-3.64-4.59-3.64-4.59-.81,1.15-2.51-.23c-2.42-2-2.3-8.72-1.41-12.23s6.78-15.7,7.71-17.55l22.58,5.57s1.28,7,1.5,10.59-2.36,15.74-5.41,15.3-1.08-9-1-11.16-.48-2.57-1.26-1.59C224.78,229.26,223.1,234.57,222.74,236.21Z" style="fill:#eb9481"></path><path d="M217.67,241.76c-1-5.65-.53-8.3,1.57-13.55,0-.11-.1-.19-.15-.09-2.53,5-3.66,8.19-1.69,13.7C217.49,242.09,217.72,242,217.67,241.76Z" style="fill:#263238"></path><path d="M211.66,241.41c-.57-6,0-8.85,1.76-14.51,0-.08-.11-.13-.14-.05-2.22,5.41-3.28,8.66-1.92,14.54C211.42,241.66,211.69,241.68,211.66,241.41Z" style="fill:#263238"></path><path d="M205.18,239.85c-.14-5.81.32-9,2.77-14.27a.11.11,0,0,0-.19-.1c-3,5.13-3.62,9.1-2.75,14.35C205.06,240.19,205.19,240.21,205.18,239.85Z" style="fill:#263238"></path><path d="M236.94,138.1c-12.39,19.77-26.77,66.29-28.37,72.86-1.09,4.47,22.36,10.74,22.65,7.6.36-4,9.12-54.55,10.36-73.18C242.27,135.1,239.49,134,236.94,138.1Z" style="fill:#eb9481"></path><path d="M242.34,150c-.39,16.93-9.13,64.82-9.13,64.82l-17.74-4.41-8.95-2.23s18.67-49,27-65.53c.65-1.27,1.25-2.37,1.82-3.3C240.83,130.37,242.64,136.93,242.34,150Z" style="fill:#ebebeb"></path><path d="M233.54,209.71c-10.63-3.53-22.34-5.63-24.35-6.14a.08.08,0,0,0,0,.16c2,.39,15.13,4.24,24.36,6.14C233.62,209.9,233.65,209.74,233.54,209.71Z" style="fill:#263238"></path><path d="M242.34,150c-.39,16.93-9.13,64.82-9.13,64.82l-17.74-4.41,19.91-71.06C240.83,130.37,242.64,136.93,242.34,150Z" style="fill:#263238"></path><polygon points="260.25 205.3 254.29 294.84 251 344.25 245.76 423.06 203.38 423.06 203.42 422.57 206.77 382.05 210.04 342.38 221.36 205.3 260.25 205.3" style="fill:#eb9481"></polygon><path d="M174.24,446.62c2.25.73,68.2-.26,70.62-1.85.29-.18.34-6.14.25-14.31l3.21-48.53-41.73.12-3.29,42s-9.36,4.32-17.09,8.1l0,0a92.65,92.65,0,0,0-9.83,5.2C173.89,439.43,172,445.9,174.24,446.62Z" style="fill:#eb9481"></path><path d="M174.24,446.62c2.25.73,68.2-.26,70.62-1.85.29-.18.34-6.14.25-14.31-16.29,3.63-59.73,9.51-61,6.1-.5-1.37.53-2.92,2.08-4.35a92.65,92.65,0,0,0-9.83,5.2C173.89,439.43,172,445.9,174.24,446.62Z" style="fill:#263238"></path><polygon points="310.96 424.53 310.95 424.53 268.3 422.74 268.25 422.74 259.73 344.65 254.29 294.84 244.52 205.3 283.88 205.3 301.33 346.56 305.77 382.55 305.78 382.55 307.51 396.58 310.96 424.53" style="fill:#eb9481"></polygon><path d="M339.72,448.36c-2.26.69-68.18-1.41-70.58-3-.28-.18-.23-6.14,0-14.31l-4.95-48.63,41.58.17,5.28,42.8s9.29,4.47,16.95,8.38l0,0a94.49,94.49,0,0,1,9.74,5.36C340.19,441.17,342,447.68,339.72,448.36Z" style="fill:#eb9481"></path><path d="M339.72,448.36c-2.26.69-68.18-1.41-70.58-3-.28-.18-.23-6.14,0-14.31,16.22,3.9,59.55,10.51,60.89,7.12.52-1.35-.49-2.93-2-4.38a94.49,94.49,0,0,1,9.74,5.36C340.19,441.17,342,447.68,339.72,448.36Z" style="fill:#263238"></path><polygon points="301.33 346.56 259.73 344.65 254.29 294.84 251 344.25 210.04 342.38 221.36 205.3 283.88 205.3 301.33 346.56" style="fill:#263238"></polygon><polygon points="220.64 205.3 285.93 205.3 302.47 339.69 206.78 339.69 220.64 205.3" style="fill:#455a64"></polygon><path d="M224.9,178l-4.76,32.68s53.27.79,66.49-.14c0,0-10.79-61.1-25-76.54-7.11-7.72-15.46-7.14-20.78-1.74-1.35,1.36-17.41,22.6-19.11,30.71C220.27,170.09,224.9,178,224.9,178Z" style="fill:#C4A8EF"></path><path d="M259.55,131.27c.21-.46-9.23,15.61-14.19,15-3.82-.48-5.09-13.47-4.21-14.32C246.85,126.51,253.06,127.07,259.55,131.27Z" style="fill:#eb9481"></path><path d="M255.32,90.83c-2.24-1.82-2.95-8.79,0-12.18,4.06-4.67,13.72-.37,12.27,6.44S257.05,92.23,255.32,90.83Z" style="fill:#263238"></path><path d="M264.27,78a12.26,12.26,0,0,0-5.79-1.56,4.8,4.8,0,0,0-2.67.81,5,5,0,0,0-1.71,2.19,11.12,11.12,0,0,0-.76,2.84,13.51,13.51,0,0,0-.13,3,10.19,10.19,0,0,0,2.11,5.58,8.89,8.89,0,0,1-2.89-5.49,12.24,12.24,0,0,1,0-3.2,11.71,11.71,0,0,1,.78-3.12,5.71,5.71,0,0,1,2.11-2.56,5.39,5.39,0,0,1,3.2-.8A10.24,10.24,0,0,1,264.27,78Z" style="fill:#263238"></path><path d="M254.52,131.27c-.39,1-6.31,7-11,6.11-1.53-.29-.29-8.73-.29-8.73l-.05-.64-.7-9,11.2-5.1,1.61-.66s0,2.48,0,5.56v.44c0,.17,0,.34,0,.5,0,.46,0,.93,0,1.4s0,.71,0,1.08l0,1.12A57.64,57.64,0,0,1,254.52,131.27Z" style="fill:#eb9481"></path><path d="M255.31,118.8A18.12,18.12,0,0,1,243.17,128l-.7-9,11.2-5.1,1.61-.66S255.31,115.72,255.31,118.8Z" style="fill:#263238"></path><path d="M231.21,105.59c-1.47,15.79,7.82,18.46,11.22,18.77,3.1.29,13.66.86,16.75-14.69s-3.78-21.23-10.81-22.25S232.68,89.8,231.21,105.59Z" style="fill:#eb9481"></path><path d="M235.75,102.46a10.23,10.23,0,0,0,1.08-.2,1.77,1.77,0,0,0,1.06-.41.57.57,0,0,0,0-.69,1.4,1.4,0,0,0-1.37-.36,2.05,2.05,0,0,0-1.31.7A.6.6,0,0,0,235.75,102.46Z" style="fill:#263238"></path><path d="M246.31,102.73a9.6,9.6,0,0,1-1.06-.25,1.77,1.77,0,0,1-1-.46.57.57,0,0,1,0-.69,1.42,1.42,0,0,1,1.39-.29,2,2,0,0,1,1.27.75A.6.6,0,0,1,246.31,102.73Z" style="fill:#263238"></path><path d="M244.11,106.69s.08,0,.08.09c-.09,1.08,0,2.33,1,2.73,0,0,0,.07,0,.06C244,109.35,243.86,107.69,244.11,106.69Z" style="fill:#263238"></path><path d="M245.12,105.6c1.74,0,1.72,3.44.11,3.49S243.66,105.65,245.12,105.6Z" style="fill:#263238"></path><path d="M245.81,105.79c.3.2.6.55,1,.59s.75-.32,1-.66c0,0,.06,0,.06,0,0,.66-.26,1.35-1,1.44s-1.12-.51-1.28-1.18C245.58,105.9,245.68,105.71,245.81,105.79Z" style="fill:#263238"></path><path d="M237.75,106.46s-.08.05-.08.1c0,1.08-.11,2.32-1.09,2.68a0,0,0,0,0,0,.06C237.78,109.13,238,107.48,237.75,106.46Z" style="fill:#263238"></path><path d="M236.79,105.33c-1.74-.13-1.88,3.36-.27,3.48S238.24,105.44,236.79,105.33Z" style="fill:#263238"></path><path d="M236.05,105.53c-.28.18-.57.5-.9.51s-.65-.37-.88-.75c0,0-.05,0-.05,0,0,.67.15,1.37.78,1.52s1-.42,1.22-1.07C236.25,105.66,236.16,105.46,236.05,105.53Z" style="fill:#263238"></path><path d="M243.52,115.28c-.25.27-.5.62-.89.67a2.81,2.81,0,0,1-1.17-.23s-.07,0,0,.06a1.44,1.44,0,0,0,1.39.53,1.14,1.14,0,0,0,.81-1A.06.06,0,0,0,243.52,115.28Z" style="fill:#263238"></path><path d="M239.08,111.29a23.53,23.53,0,0,0-.27,2.37c0,.07.18.11.44.13h0a3.61,3.61,0,0,0,3.54-1.28c.05-.07,0-.15-.12-.11a5.35,5.35,0,0,1-3.32.88c0-.21.53-2.73.41-2.75a6.94,6.94,0,0,0-1.73.36c.43-3.36,1.39-6.63,1.77-10a.1.1,0,0,0-.19-.05,54.89,54.89,0,0,0-2.38,10.68C237.19,112,238.77,111.42,239.08,111.29Z" style="fill:#263238"></path><path d="M259.06,109.75c-1.81-.15-6.42-5.25-6.37-14,0,0,.5,7.88,1.06,9s-2.57-2.87-2.63-9.94a28.46,28.46,0,0,1-7.33,3.6c-3.36.86-5.4.78-5.63.53s4.71-1.68,6.07-3.18c0,0-9,3.93-13.07,4.14-.47,0-.82-9.72,5.6-13.7s16.34.7,19,3.36c0,0,3.15.53,6.48,5.28S261,109.91,259.06,109.75Z" style="fill:#263238"></path><path d="M254.51,89.4a38.22,38.22,0,0,0-3.68-2.09A28.83,28.83,0,0,0,247,85.66a18.82,18.82,0,0,0-4-1,5.75,5.75,0,0,0-1-.09c-.34,0-.68,0-1,0a9.39,9.39,0,0,0-2,.31,9.1,9.1,0,0,0-1.86.7,14.59,14.59,0,0,0-1.68,1.14,11.44,11.44,0,0,0-1.48,1.39,15.11,15.11,0,0,0-1.2,1.65,13.87,13.87,0,0,0-1.6,3.8,16.64,16.64,0,0,0-.59,4.16,14.21,14.21,0,0,1,1.52-8.34A10.73,10.73,0,0,1,234.82,86a12,12,0,0,1,1.81-1.26,9.78,9.78,0,0,1,2.08-.82,10.85,10.85,0,0,1,4.39-.18,16.94,16.94,0,0,1,4.16,1.18A27.23,27.23,0,0,1,254.51,89.4Z" style="fill:#263238"></path><path d="M256.56,110.65s3.49-4.93,5.73-3.68-.41,8.41-3.05,9.37a2.68,2.68,0,0,1-3.59-1.46Z" style="fill:#eb9481"></path><path d="M261.48,109s0,.06,0,.07c-1.86.74-2.84,2.45-3.54,4.22a1.48,1.48,0,0,1,2.22-.39c.05,0,0,.11-.05.1a1.65,1.65,0,0,0-1.82.56,8.67,8.67,0,0,0-.88,1.47c-.08.16-.38.07-.32-.12l0,0C257.1,112.51,259,109.22,261.48,109Z" style="fill:#263238"></path><path d="M256.21,129.42S250,299.78,253.3,307.87s49.17,14.29,49.17,14.29S291.57,202.05,278.39,165C266.17,130.73,256.21,129.42,256.21,129.42Z" style="fill:#ebebeb"></path><path d="M289,236.89a115.8,115.8,0,0,1-13.55,1.05c-6.34,0-12.63-.61-14.45-.64-.16,0-.25.54-.13.55a142.54,142.54,0,0,0,14.47,1,76,76,0,0,0,13.2-1.25c0,1.34,0,2.39,0,3.73-4.47.87-13.09,2.36-27,.57,0-.57,0-3.55-.08-4.37,0-.13-.54-.15-.56,0-.11.81-.44,8-.45,9.45,0,3.6.21,13.77,1.11,15.74,2,4.46,10.71,4.47,13.11,4.49s10.15.26,13.06-2.58c1.55-1.51,1.88-9.76,1.65-17C289.16,244.17,289.16,237,289,236.89Zm-13.69,29.47c-5.86-.13-11-1.6-12.2-3.2-1.38-1.87-1.5-5.12-1.6-8.71-.08-2.82,0-11.66,0-11.84,4.47.91,16.28,2.14,27-.36,0,4.19,0,7.54,0,11.73,0,3-.19,8.12-1.73,9.89C285.48,265.35,280.81,266.49,275.26,266.36Z" style="fill:#263238"></path><path d="M222.51,309.45c-2.75,6.49-19.13,10.89-19.13,10.89L224,178.17a21.24,21.24,0,0,1-2.89-14.29c1.39-8,18.4-31.44,20.49-32.39a296.1,296.1,0,0,0-5.5,36.35C231.5,217.8,225.5,302.39,222.51,309.45Z" style="fill:#ebebeb"></path><path d="M241.85,131.28c-1.17,2.1-2.36,4.19-3.58,6.25s-2.43,4.14-3.68,6.18l-.07-.55c1.17,1.08,2.32,2.17,3.47,3.27l.36.34-.34.36-4,4.19.13-.39q.57,4.65,1,9.3c.31,3.11.59,6.22.8,9.34-.56-3.08-1-6.16-1.49-9.25s-.9-6.18-1.3-9.27l0-.23.15-.17,4-4.2v.69c-1.14-1.1-2.28-2.22-3.4-3.34l-.26-.26.19-.29c1.29-2,2.63-4,3.95-6S240.47,133.25,241.85,131.28Z" style="fill:#a6a6a6"></path><rect x="215.17" y="165.6" width="52.48" height="40.32" transform="translate(48.09 421.17) rotate(-88.18)" style="fill:#263238"></rect><rect x="232.86" y="156.84" width="19.11" height="5.79" transform="translate(5.38 -7.88) rotate(1.88)" style="fill:#c7c7c7"></rect><polygon points="247.72 157.02 245.37 156.94 245.45 154.27 239.74 154.09 239.65 156.75 237.3 156.68 237.46 151.81 247.91 152.16 247.72 157.02" style="fill:#c7c7c7"></polygon><path d="M269.51,139.59c20.21,21.3,36.82,65.59,27.1,69.75-8.89,3.8-37.06.29-48.64-2.47-3.4-.81,3.45-27.17,7.09-26.31,4.4,1.05,15.64,2.67,16.09,2.63,1-.06-9.84-31-13.14-42.35C253.41,125.08,261.91,131.59,269.51,139.59Z" style="fill:#eb9481"></path><path d="M220,174.51a4.17,4.17,0,0,0,.34,4.74,6.21,6.21,0,0,0-3,3c-1,2.36,2.32,4.9,2.32,4.9a7.61,7.61,0,0,0-2.63,3.65c-.69,2.35,2.25,5.38,2.25,5.38a6.72,6.72,0,0,0-.29,4.66c1.41,4.05,7.8,5.51,11.86,6.47s16.45-.09,18.84-.06l6.42-26s-17-9.5-21.88-10C230.14,170.93,221.78,171.77,220,174.51Z" style="fill:#eb9481"></path><path d="M220.65,178.88c4.51-.65,9,.07,13.46.54a.08.08,0,0,1,0,.15c-4.46-.51-9-.14-13.44-.47C220.53,179.09,220.53,178.9,220.65,178.88Z" style="fill:#263238"></path><path d="M219.88,186.81a12,12,0,0,1,3.1.27c1.09.17,2.17.35,3.25.56,2.17.41,4.33.86,6.47,1.38.1,0,.08.18,0,.16-2.16-.4-4.32-.77-6.5-1.09l-3.27-.44a13.83,13.83,0,0,1-3.06-.54A.16.16,0,0,1,219.88,186.81Z" style="fill:#263238"></path><path d="M219.43,196.18a8.18,8.18,0,0,1,2.77.38l3,.61c2,.39,3.94.78,5.92,1.1a.08.08,0,0,1,0,.16c-2-.32-4-.61-6.05-1-1-.16-2-.33-3-.51a7.92,7.92,0,0,1-2.64-.69S219.39,196.18,219.43,196.18Z" style="fill:#263238"></path><path d="M270.11,182.34c1.39-1.18-10-30.33-13-43s.54-12.18,11-1.81,27.8,36.45,31.55,61.29c1.18,7.76,2.76,13.3-15.19,13a206.47,206.47,0,0,1-31.14-2.72l3.92-28.38S269.71,182.69,270.11,182.34Z" style="fill:#ebebeb"></path><path d="M259.68,208.89c2.29-11.22,3-23.36,3.28-25.47,0-.1-.15-.11-.16,0-.16,2.08-2.48,15.87-3.3,25.48C259.49,209,259.65,209,259.68,208.89Z" style="fill:#263238"></path><path d="M283.76,184.56a22.91,22.91,0,0,0-3.39-.7l-3.16-.58-1.37-.23.13,0,1.84-.26c.61-.09,1.21-.23,1.83-.28.1,0,.09-.16,0-.15-.6.08-1.22.07-1.83.11l-1.91.14c-.56,0-1.11.11-1.67.17-1-.17-2-.33-3.06-.47-.44-2-1.15-4-1.77-6s-1.31-4.11-2-6.15-1.42-4-2.19-6c-.38-1-.78-2-1.17-3a23.06,23.06,0,0,1-1.17-3.09c0-.1-.19,0-.14.07a21.32,21.32,0,0,1,1.1,3.21c.31,1,.61,2,.92,3q.93,3,1.88,6.05c.64,2,1.28,4,1.91,6.05.58,1.85,1.07,3.75,1.73,5.57-2.09-.28-4.19-.52-6.28-.78l-3.21-.38c-1.15-.13-2.35-.13-3.48-.33-.1,0-.13.14,0,.15,1.12.13,2.26.48,3.39.68l3.16.55c2.24.38,4.47.78,6.71,1.13s4.43.59,6.65.84c1.11.13,2.22.24,3.33.38a22.26,22.26,0,0,0,3.25.27A.05.05,0,0,0,283.76,184.56Z" style="fill:#263238"></path><path d="M288.7,211.86c-9.67-.34-27.08-1.66-35.14-2.74-.11,0-.13.14,0,.16a138.79,138.79,0,0,0,35.16,2.95A.19.19,0,0,0,288.7,211.86Z" style="fill:#263238"></path><path d="M264.17,149.44l.33.24-.17.35c-1.38,2.9-2.72,5.8-4.16,8.67l-.69,1.38-.67,0,.72-1.66c1.21-2.83,2.51-5.6,3.76-8.4-1.5-1-3-2.09-4.49-3.15l-.5-.36.46-.4,4.83-4.2C262.36,140,261.19,138,260,136s-2.48-4.14-3.68-6.24c1.42,2,2.8,3.94,4.16,5.94s2.73,4,4,6l.2.31-.28.25-4.58,4.1C261.31,147.4,262.74,148.43,264.17,149.44Z" style="fill:#a6a6a6"></path></g></svg>